<?xml version="1.0" encoding="utf-8"?>
<!-- Generator: Adobe Illustrator 22.0.0, SVG Export Plug-In . SVG Version: 6.00 Build 0)  -->
<svg version="1.1" id="logo" xmlns="http://www.w3.org/2000/svg" xmlns:xlink="http://www.w3.org/1999/xlink" x="0px" y="0px"
	 width="146px" height="51.5px" viewBox="0 0 146 51.5" style="enable-background:new 0 0 146 51.5;" xml:space="preserve">
<style type="text/css">
	.st0{fill:none;}
	.st1{fill:#F3D73E;}
	.st2{opacity:0.8;fill:#FFFFFF;enable-background:new    ;}
</style>
<g>
	<path class="st0" d="M90.3,45.7h-1.1v5.1h0.9c0.7,0.1,1.5-0.2,2-0.7h0c0.9-1.1,0.9-2.7,0-3.8C91.7,45.8,91,45.6,90.3,45.7z"/>
	<path class="st0" d="M39.1,26.5c0.7-0.3,1.3-0.8,1.8-1.3l0,0c0.7-0.8,0.9-1.8,0.5-2.8c-0.2-0.4-0.7-0.7-1.1-0.5
		c-1.6,0.5-2.3,1.9-2.5,3.7c-0.1,0.5,0.3,0.9,0.8,1C38.8,26.5,38.9,26.5,39.1,26.5z"/>
	<path class="st0" d="M110.1,45.7c-0.6-0.3-1.3-0.1-1.6,0.5l0,0c-0.4,1.3-0.4,2.8,0,4.1c0.1,0.2,0.3,0.4,0.5,0.5
		c0.6,0.3,1.3,0.1,1.6-0.5c0.4-1.3,0.4-2.7,0-4.1C110.5,46,110.4,45.8,110.1,45.7z"/>
	<path class="st0" d="M51.3,48.7c-0.4-0.2-0.8-0.3-1.2-0.3l0,0h-1.3v2.4h1.3c0.4,0,0.8-0.1,1.2-0.3c0.3-0.2,0.4-0.6,0.4-0.9
		C51.7,49.2,51.6,48.9,51.3,48.7z"/>
	<path class="st0" d="M42.5,45.8c-0.1,0.3-0.2,0.6-0.3,0.9l-0.8,2h0h2.1l-0.7-2C42.7,46.5,42.6,46.2,42.5,45.8z"/>
	<path class="st0" d="M50,47.8c0.4,0,0.8-0.1,1.1-0.2c0.2-0.2,0.4-0.5,0.3-0.8c0-0.3-0.1-0.6-0.4-0.8c-0.4-0.2-0.8-0.3-1.2-0.2h-1.1
		v2.1H50z"/>
	<path class="st0" d="M58.6,19.9c0,0-0.1,0-0.1,0c-1.8-0.3-3.5-0.3-5.3,0c-0.3,0-0.5,0.2-0.6,0.4c-0.4,0.7-0.9,1.4-1.6,1.9
		c-0.2,0.1-0.3,0.3-0.3,0.5c-0.3,2.2-0.3,4.4,0.2,6.5c0,0.1,0,0.2,0.1,0.2c1.1,2.2,3.4,2.4,7.6-1.1l0,0c-0.2-2.5,0-5,0.6-7.5
		C59.3,20.5,59.1,20,58.6,19.9z"/>
	<polygon class="st0" points="51.3,17 51.3,17 51.3,17 	"/>
	<path class="st0" d="M92.6,6.6L92.6,6.6c-2.6,2.7-3.9,6.6-4.5,11c-0.1,0.5,0.3,0.9,0.8,1c0.4,0,0.7-0.1,0.9-0.5
		C91.5,14.5,92.8,11.2,92.6,6.6z"/>
	<path class="st1" d="M27.7,19.5c-0.4-0.3-0.5-0.8-0.2-1.2c0.1-0.2,0.3-0.3,0.5-0.4c6-1.8,10.5-5.4,7.5-10.8
		c-3.6-6.4-11.5-7-18.6-7.2l0,0C6-0.3,1.8,4.1,0.2,10.4c-0.9,3.8,2.5,3,3.2,1.3C5,8,7.7,4.8,16.8,4.4c0,0,0,0,0.1,0
		c8.5,0.2,13.5,1.9,13.6,5.6c0,0.1,0,0.1,0,0.2c-0.5,4.1-3.8,6-9.4,5.4c-4.5-0.5-5.9,1.9-4,3.4c2.6,2,10.7,1.3,10,7.8
		c-0.2,5.8-5.8,8.4-12.9,6.2c-3.2-1-2.6-0.9-2.7-4.1c-0.1-5.8,0.4-11.5,2.8-17c0-0.1,0.1-0.1,0.1-0.2c2.5-3.3-1.6-5.2-3.2-3.5
		c-3.7,4.3-7.6,23.4-4.8,26.9c0.1,0.1,0.2,0.2,0.4,0.3c7,2.5,14.1,4.2,19.5,0.6C33.5,31.2,34.3,23.9,27.7,19.5z"/>
	<path class="st1" d="M123.7,16.4c1.8-0.3,3.3-1.7,3.3-3s-1.5-2.1-3.3-1.8c-1.8,0.3-3.3,1.7-3.3,3C120.4,15.9,121.9,16.7,123.7,16.4
		z"/>
	<path class="st1" d="M145.9,29.4l-0.5-0.9c0,0-0.1-0.1-0.1-0.1c-0.3-0.4-0.9-0.4-1.3,0c-1.3,1.2-2.9,2-4.6,2.4
		c-0.4,0.1-0.9-0.1-1-0.5c-1.2-3-0.4-6.1,0.6-9.1c0.1-0.2,0.1-0.3,0-0.5c-0.8-2.5-2.3-2.7-4.5-0.3c0,0-0.1,0.1-0.1,0.2
		c-0.3,0.5-0.6,1-0.9,1.6c-0.2,0.3-0.4,0.4-0.7,0.4c-0.5,0-0.9-0.4-0.9-0.8c0-0.7-0.1-1.3-0.2-2c0-0.2-0.1-0.3-0.2-0.4
		c-1.4-1.3-2.8-1.4-3.6,2.6c-0.4,2.3-0.8,4.6-1.2,6.8c0,0.2-0.1,0.4-0.3,0.5c-2.8,2.4-4.9,3.4-4.6,0.1c0,0,0-0.1,0-0.1
		c0.7-3.2,1.4-6.4,2.1-9.5c0.1-0.4-0.2-0.9-0.6-1c-1.4-0.4-2.6,0.5-3.6,2.8c0,0,0,0.1,0,0.1c-1.2,3.6-1.8,7.7-5.1,9.4
		c-0.4,0.2-0.9,0.1-1.1-0.4c-0.8-1.4-0.1-4.6,0.8-8c0.6-2.2-0.3-2.9-2.1-2.7c-0.2,0-0.5,0-0.7-0.2c-3.6-2.9-6.9,0.4-10.2,8.8
		c-0.1,0.1-0.1,0.3-0.2,0.3c-1.5,1.2-2.8,2.1-3.8,2c-0.3,0-0.5-0.2-0.7-0.4c-1.2-2.1,0.3-5.4,2.3-9.1c0.8-1.7-0.8-4.5-2.8-2.8
		L93.2,21c-0.3,0.3-0.6,0.3-1,0.2c-0.4-0.2-0.6-0.7-0.4-1.2l2.5-5.2c0,0,0,0,0-0.1c2.7-7,2.3-10.7-1.1-11.1c-0.1,0-0.1,0-0.2,0
		c-7.3,0.2-8.6,10.6-9,22.6c0,0.2-0.1,0.5-0.3,0.6c-11.6,9.3-20.1,9.6-20.6,0c0,0,0-0.1,0-0.1c0.7-6.7,2.6-13,9.7-17.4
		c0.1-0.1,0.2-0.1,0.3-0.1c3.5-0.7,5.2,0.4,5.4,2.9c0,0,0,0.1,0,0.1c-0.3,4.1-2.4,6.4-6.6,6.3c-3.2-0.4-3.9,4.2,0.9,3.8
		c0,0,0.1,0,0.1,0c4.6-1,8.3-3.5,9.4-10c0,0,0-0.1,0-0.1c0.1-4.5-2.4-6.6-6.9-6.9c0,0-0.1,0-0.1,0c-7.2,0.1-11.3,5.3-14.5,12
		c-0.2,0.4-0.7,0.6-1.1,0.4c-1.1-0.4-2.4-0.6-3.6-0.6c-0.2,0-0.4-0.1-0.5-0.2c-0.4-0.3-0.5-0.8-0.2-1.2c1.2-1.7,1.9-3.7,2.2-5.8
		c0-0.1,0-0.1,0-0.2c-0.2-3.1-1.3-4.4-3.1-4.5c-0.2,0-0.3,0-0.4,0.1c-2.9,1.6-5.3,4.6-6.2,10.5c-0.1,0.5-0.5,0.8-1,0.7
		c-1.1-0.2-2.2-0.1-3.3,0.1c-0.8,0.2-1.2,0.5-0.9,1c1.1,0.7,2.4,1.1,3.7,1.2c0,0,0,0,0,0c0.5,0.1,0.8,0.5,0.7,1
		c-0.4,2.2-0.4,4.5,0.1,6.8c0.1,0.3-0.1,0.7-0.4,0.9c-4.3,2.8-7.3,3.9-8.3,2.2c0-0.1-0.1-0.1-0.1-0.2c-0.1-0.5,0.1-0.9,0.6-1.1
		c5.5-1.8,8.5-7.7,2.5-10.3c-0.1,0-0.2-0.1-0.4-0.1c-2.9,0-5.1,1.7-6.6,4.8c-1.4,2.6-1.4,5.8,0,8.4c0,0.1,0.1,0.1,0.1,0.2
		c3.4,3.9,7.7,3,12.4-0.3c0.4-0.3,0.9-0.2,1.2,0.2c2.5,3.5,6,3.1,10.2,0.3c0,0,0,0,0,0c0.4-0.3,1-0.1,1.2,0.3
		c6,9.7,16.9,4.1,23.9-1.3l0,0c0.5,3.6,1.5,4.4,3.1,1.8c0,0,0-0.1,0.1-0.1c1-2.5,2.4-4.8,4-7c0.2-0.2,0.5-0.4,0.9-0.3
		c0.5,0.1,0.8,0.6,0.7,1c-2.3,9.7,3.9,8.6,7.8,6.1c0.4-0.2,0.9-0.2,1.2,0.2c0.2,0.2,0.3,0.3,0.5,0.5c2.1,1.8,5.2,1.6,7-0.4
		c0,0,0,0,0,0c0.4-0.3,0.9-0.3,1.3,0.1c0.2,0.2,0.3,0.4,0.5,0.6c1.6,1.5,4.2,1.4,5.7-0.2c0.4-0.3,0.9-0.3,1.2,0
		c1.7,1.8,4.4,1.5,7.9-0.6c0,0,0,0,0,0c0.4-0.2,1-0.1,1.2,0.3c0.9,1.6,2,1.9,3.4,0.6c1.1-1,1.2-3.8,3-6.3c0.2-0.2,0.4-0.4,0.7-0.4
		c0.5,0,0.9,0.4,0.9,0.9c-0.3,5.7,1.2,7.2,3.7,6.5c0.1,0,0.1,0,0.2-0.1l7-3.8c0,0,0,0,0,0C146,30.3,146.1,29.8,145.9,29.4z
		 M37.9,25.6c0.2-1.8,0.9-3.2,2.5-3.7c0.4-0.2,0.9,0.1,1.1,0.5c0.3,1,0.1,2-0.5,2.8l0,0c-0.5,0.6-1.1,1-1.8,1.3
		c-0.1,0.1-0.3,0.1-0.4,0.1C38.2,26.5,37.8,26,37.9,25.6z M53.2,10.6c0.3-0.4,0.8-0.5,1.2-0.2c0.2,0.2,0.4,0.4,0.4,0.7
		c0,2.2-2.1,4.3-3.5,5.9c0,0,0,0,0,0h0c0,0,0,0,0,0C51.3,14.7,52,12.5,53.2,10.6z M59.2,21c-0.6,2.4-0.8,5-0.6,7.5l0,0
		c-4.2,3.5-6.4,3.3-7.6,1.1c0-0.1-0.1-0.2-0.1-0.2c-0.5-2.1-0.5-4.4-0.2-6.5c0-0.2,0.1-0.4,0.3-0.5c0.7-0.5,1.2-1.2,1.6-1.9
		c0.1-0.2,0.3-0.4,0.6-0.4c1.8-0.3,3.5-0.3,5.3,0c0,0,0.1,0,0.1,0C59.1,20,59.3,20.5,59.2,21z M89.7,18.1c-0.2,0.3-0.5,0.5-0.9,0.5
		c-0.5-0.1-0.8-0.5-0.8-1c0.7-4.5,2-8.3,4.5-11v0C92.8,11.2,91.5,14.5,89.7,18.1z M105.9,31.1c-3.4-1.7,1.6-9.1,4.2-9.3
		C109.2,26.6,108.3,32.3,105.9,31.1z"/>
	<path class="st2" d="M42.9,45h-0.6l-2.5,6.5h0.8l0.8-2h2.6l0.8,2h0.8l0,0L42.9,45z M41.5,48.7L41.5,48.7l0.8-2
		c0.1-0.3,0.2-0.6,0.3-0.9c0.1,0.4,0.2,0.7,0.3,0.9l0.7,2H41.5z"/>
	<polygon class="st2" points="20.2,51.4 23.8,51.4 23.8,50.8 21,50.8 21,48.4 23.7,48.4 23.7,47.8 21,47.8 21,45.7 23.8,45.7 
		23.8,45 20.2,45 	"/>
	<path class="st2" d="M51.1,48.1C51.1,48.1,51.1,48.1,51.1,48.1L51.1,48.1c0.3-0.1,0.7-0.3,0.9-0.5c0.2-0.3,0.3-0.6,0.3-0.9
		c0-0.5-0.2-0.9-0.6-1.2c-0.6-0.3-1.2-0.4-1.9-0.4h-1.8v6.4h0h2.2c0.6,0,1.2-0.1,1.6-0.5c0.4-0.3,0.6-0.8,0.6-1.3
		C52.5,48.8,51.9,48.1,51.1,48.1z M48.8,45.7h1.1c0.4,0,0.8,0.1,1.2,0.2c0.3,0.2,0.4,0.5,0.4,0.8c0,0.3-0.1,0.6-0.3,0.8
		c-0.3,0.2-0.7,0.3-1.1,0.2h-1.2V45.7L48.8,45.7L48.8,45.7z M51.3,50.5c-0.3,0.2-0.8,0.3-1.2,0.3h-1.3v-2.4h1.3l0,0
		c0.4,0,0.9,0.1,1.2,0.3c0.3,0.2,0.4,0.5,0.4,0.9C51.7,49.9,51.6,50.3,51.3,50.5z"/>
	<polygon class="st2" points="33,45.7 35,45.7 35,51.4 35.8,51.4 35.8,45.7 35.8,45.7 35.8,45.7 37.8,45.7 37.8,45 33,45 	"/>
	<path class="st2" d="M30.3,48.7c-0.4-0.4-0.9-0.6-1.4-0.8c-0.3-0.1-0.6-0.2-0.9-0.4c-0.2-0.1-0.3-0.2-0.4-0.4
		c-0.1-0.2-0.1-0.4-0.1-0.5c0-0.3,0.1-0.5,0.3-0.7c0.3-0.2,0.6-0.3,0.9-0.3c0.5,0,1.1,0.1,1.5,0.3l0.2-0.6c-0.6-0.2-1.2-0.4-1.8-0.4
		c-0.5,0-1,0.1-1.5,0.4c-0.4,0.3-0.6,0.7-0.6,1.2c0,0.4,0.1,0.8,0.4,1.1c0.4,0.4,0.8,0.6,1.3,0.8c0.3,0.1,0.6,0.2,1,0.4
		c0.2,0.1,0.3,0.2,0.4,0.4c0.1,0.2,0.1,0.4,0.1,0.5c0,0.3-0.1,0.6-0.4,0.8c-0.3,0.2-0.7,0.3-1.1,0.3c-0.6,0-1.2-0.1-1.8-0.4v0.7
		c0.6,0.2,1.2,0.3,1.8,0.3c0.6,0,1.2-0.1,1.7-0.5c0.4-0.3,0.6-0.8,0.6-1.3C30.7,49.3,30.6,49,30.3,48.7L30.3,48.7z"/>
	<path class="st2" d="M111.2,45.8c-0.6-0.9-1.8-1.1-2.7-0.5c-0.2,0.1-0.4,0.3-0.5,0.5c-0.4,0.8-0.6,1.6-0.5,2.5
		c-0.1,0.9,0.1,1.7,0.5,2.5c0.3,0.5,0.9,0.9,1.6,0.8c0.6,0,1.3-0.3,1.6-0.8c0.4-0.8,0.6-1.6,0.5-2.5
		C111.8,47.4,111.6,46.5,111.2,45.8L111.2,45.8z M110.6,50.3c-0.3,0.6-1,0.8-1.6,0.5c-0.2-0.1-0.4-0.3-0.5-0.5
		c-0.4-1.3-0.4-2.8,0-4.1l0,0c0.3-0.6,1-0.8,1.6-0.5c0.2,0.1,0.4,0.3,0.5,0.5C111.1,47.5,111.1,48.9,110.6,50.3z"/>
	<path class="st2" d="M101.4,50.8L101.4,50.8l1.4-1.4c0.5-0.4,0.9-1,1.3-1.5c0.2-0.4,0.3-0.8,0.3-1.2c0-0.5-0.2-0.9-0.5-1.2
		c-0.4-0.3-0.9-0.5-1.4-0.5c-0.7,0-1.4,0.3-1.9,0.7l0.4,0.5c0.2-0.2,0.5-0.4,0.8-0.5c0.2-0.1,0.5-0.1,0.8-0.1c0.3,0,0.6,0.1,0.9,0.3
		c0.2,0.2,0.3,0.5,0.3,0.8c0,0.2,0,0.5-0.1,0.7c-0.1,0.2-0.2,0.5-0.4,0.7c-0.3,0.4-0.7,0.8-1,1.1l-1.7,1.7v0.6h4.2v-0.7l0,0H101.4z"
		/>
	<path class="st2" d="M124,48.1L124,48.1c0.4-0.1,0.7-0.3,1-0.6c0.2-0.3,0.4-0.6,0.3-1c0-0.5-0.2-0.9-0.5-1.2l0,0
		c-0.4-0.3-0.9-0.5-1.5-0.4c-0.4,0-0.7,0.1-1.1,0.2c-0.3,0.1-0.6,0.3-0.9,0.5l0.4,0.5c0.3-0.2,0.6-0.3,0.9-0.4
		c0.3-0.1,0.5-0.1,0.8-0.1c0.3,0,0.6,0.1,0.9,0.3c0.2,0.2,0.3,0.5,0.3,0.7c0,0.4-0.1,0.7-0.4,0.9c-0.3,0.2-0.8,0.4-1.2,0.3h-0.6v0.6
		h0.6c1.2,0,1.8,0.4,1.8,1.2c0,0.9-0.6,1.3-1.7,1.3c-0.6,0-1.2-0.2-1.8-0.4v0.7c0.3,0.1,0.5,0.2,0.8,0.3c0.3,0.1,0.6,0.1,0.9,0.1
		c0.6,0,1.3-0.1,1.8-0.5c0.4-0.3,0.7-0.9,0.6-1.4c0-0.4-0.1-0.8-0.4-1C124.9,48.3,124.4,48.1,124,48.1z"/>
	<path class="st2" d="M116.5,45l-1.7,1.3l0.4,0.5c0.6-0.5,1-0.8,1-0.9c0.1-0.1,0.1-0.1,0.2-0.2c0,0.3,0,0.7,0,1.1v4.6h0.7V45h0
		H116.5z"/>
	<path class="st2" d="M92.8,45.9c-0.6-0.6-1.5-0.9-2.3-0.8h-2v6.4h1.8c0.9,0.1,1.8-0.2,2.5-0.8c0.6-0.7,0.9-1.5,0.9-2.4
		C93.6,47.3,93.3,46.5,92.8,45.9L92.8,45.9z M92.1,50.1L92.1,50.1c-0.6,0.5-1.3,0.7-2,0.7h-0.9v-5.1h1.1c0.7-0.1,1.4,0.2,1.9,0.6
		C93,47.4,93,49,92.1,50.1z"/>
	<polygon class="st2" points="56.5,50.8 56.5,45 55.7,45 55.7,51.4 59.3,51.4 59.3,50.8 	"/>
	<path class="st2" d="M69.7,48.7c-0.4-0.4-0.9-0.6-1.4-0.8c-0.3-0.1-0.6-0.2-0.9-0.4c-0.2-0.1-0.3-0.2-0.4-0.4
		c-0.1-0.2-0.1-0.4-0.1-0.5c0-0.3,0.1-0.5,0.3-0.7c0.3-0.2,0.6-0.3,0.9-0.3c0.5,0,1.1,0.1,1.5,0.3l0.2-0.7c-0.6-0.2-1.2-0.4-1.8-0.4
		c-0.5,0-1,0.1-1.5,0.4c-0.4,0.3-0.6,0.7-0.6,1.2c0,0.4,0.1,0.8,0.4,1.1c0.4,0.4,0.8,0.6,1.3,0.8c0.3,0.1,0.6,0.2,1,0.4
		c0.2,0.1,0.3,0.2,0.4,0.4c0.1,0.2,0.1,0.4,0.1,0.5c0,0.3-0.1,0.6-0.4,0.8c-0.3,0.2-0.7,0.3-1.1,0.3c-0.6,0-1.2-0.1-1.8-0.4v0.7
		c0.6,0.2,1.2,0.3,1.8,0.3c0.6,0,1.2-0.1,1.7-0.5c0.4-0.3,0.6-0.8,0.6-1.3C70.1,49.3,70,49,69.7,48.7L69.7,48.7z"/>
	<rect x="62.2" y="45" class="st2" width="0.7" height="6.4"/>
	<polygon class="st2" points="77.4,45 77.4,47.8 74,47.8 74,45 73.2,45 73.2,51.4 74,51.4 74,48.4 77.4,48.4 77.4,51.4 78.1,51.4 
		78.1,45 78.1,45 	"/>
	<polygon class="st2" points="81.7,51.4 85.2,51.4 85.2,50.8 85.2,50.8 82.4,50.8 82.4,48.4 85.1,48.4 85.1,47.8 82.4,47.8 
		82.4,45.7 85.2,45.7 85.2,45 81.7,45 	"/>
</g>
</svg>
