<?xml version="1.0" encoding="UTF-8"?>
<svg width="479px" height="151px" viewBox="0 0 479 151" version="1.1" xmlns="http://www.w3.org/2000/svg" xmlns:xlink="http://www.w3.org/1999/xlink">
    <!-- Generator: Sketch 52.3 (67297) - http://www.bohemiancoding.com/sketch -->
    <title>logo</title>
    <desc>Created with Sketch.</desc>
    <defs>
        <path d="M29.3076882,115.328707 C26.0383206,113.909113 22.8442349,111.478596 19.725431,108.037157 C16.606627,104.595719 14.5525174,101.025225 13.5631039,97.325678 C13.0899064,83.5169033 13.111415,65.5784015 13.6276309,43.5101727 C10.6163713,43.811299 11.2728256,43.414619 5.76652321,44.3610151 C4.90616374,41.564846 4.29315739,38.263215 3.92750415,34.4561229 C3.56185091,30.6490308 3.5941144,27.0677832 4.02429462,23.7123799 C11.7971612,23.0012188 20.7840449,22.5392313 30.9849455,22.3264175 L29.9540061,2.43363394 L45.7167259,2.43363394 L49.3755804,21.5709979 C54.8615977,21.4912839 59.4430136,21.4912839 63.1198282,21.5709979 C68.3680226,23.8079337 73.3043369,27.6580432 77.9287712,33.1213282 C82.5532054,38.5846132 85.9193625,44.0694069 88.0272443,49.5757093 C86.8227402,52.2858427 84.9514577,55.0712578 82.4133966,57.9319538 C79.8753355,60.7926498 77.0791656,63.1048674 74.0248886,64.8686047 L74.0894156,65.9010364 C78.4342322,67.836846 82.3918879,70.762069 85.9623808,74.6767064 C89.5328736,78.5913438 91.7698094,82.5489985 92.6731872,86.5496716 C91.7267911,92.0129566 88.6510055,97.6268043 83.4458284,103.391215 C78.2406513,109.155625 72.6483133,113.113281 66.6688123,115.26418 C64.6041278,115.411657 61.3043825,115.567925 56.7695766,115.732982 L56.7695766,135.192609 L39.8370582,136.826415 L39.8370582,115.710428 C35.2486145,115.570018 31.7388245,115.442778 29.3076882,115.328707 Z M37.3735613,61.9003634 L54.4086852,61.0615126 C58.0652147,58.1793069 60.7753481,55.4476649 62.5390853,52.8665855 C61.8938155,50.8877577 60.6570479,48.7906307 58.8287837,46.5752045 C57.0005195,44.3597784 55.0754638,42.606795 53.0536186,41.3162553 C48.192586,41.2302196 43.0089176,41.2947466 37.5026153,41.5098362 C37.4165796,50.3715418 37.3735613,57.1683848 37.3735613,61.9003634 Z M38.1478851,96.5513542 C45.589997,96.6373898 52.3868401,96.3792819 58.5384123,95.7770304 C60.6032758,94.9596882 62.4207862,93.5938677 63.9909425,91.6795668 C65.5610988,89.765266 66.4967401,87.9692652 66.7978663,86.2915636 C65.2492187,82.8501248 62.3239957,79.8388651 58.0221964,77.2577858 L37.5671422,78.3547445 C37.6961962,84.4632994 37.8897772,90.5288359 38.1478851,96.5513542 Z" id="path-1"></path>
    </defs>
    <g id="logo" stroke="none" stroke-width="1" fill="none" fill-rule="evenodd">
        <g id="Group-6" transform="translate(4.000000, 3.000000)">
            <path d="M393.493366,134.670935 C393.256473,135.575553 392.96048,136.374076 392.605388,137.066506 C392.162679,138.007261 391.401775,138.671324 390.322673,139.058693 C388.053793,139.94411 385.086263,140.366066 381.420085,140.324562 C377.753907,140.283058 374.786378,139.750425 372.517497,138.726662 C371.725522,138.347174 370.891731,137.800425 370.016125,137.086416 L350.924147,137.086416 C350.809638,137.155175 350.69453,137.22323 350.578823,137.290582 C349.724645,137.752299 348.928182,138.063959 348.189434,138.22556 C345.280613,138.895051 342.360249,139.148996 339.428342,138.987394 C337.306632,138.565063 335.264854,137.931404 333.303009,137.086416 L308.870327,137.086416 C307.050074,137.595992 305.075591,137.993021 302.946877,138.277503 C300.442059,138.612249 298.173871,138.744993 296.142313,138.675735 C295.023946,138.637171 293.877395,138.107398 292.70266,137.086416 L288.034979,137.086416 C287.745994,137.587821 287.216415,137.898278 286.446243,138.017787 C281.759809,138.756535 277.108003,138.837336 272.490827,138.260189 C271.519297,138.13654 270.507221,137.641207 269.454597,136.774192 L256.816089,136.366563 C256.689992,137.382595 256.085719,137.979175 255.003271,138.156303 C253.017885,138.502591 250.790097,138.693049 248.319908,138.727678 C245.849719,138.762307 243.668103,138.652649 241.775061,138.398704 C240.574595,138.237103 239.258699,137.44064 237.827375,136.009316 C237.73929,135.921231 237.653784,135.833408 237.570858,135.745848 L222.639409,135.264265 C220.477287,136.967107 218.244804,138.196607 215.941958,138.952765 C215.157038,139.183624 214.314404,139.287511 213.414054,139.264425 C209.697227,139.148996 205.882285,138.681507 201.969228,137.861958 C198.056171,137.042409 194.887634,136.055487 192.463616,134.901193 C192.038452,134.700102 191.633305,134.483639 191.248178,134.251805 L183.384936,133.998192 C182.520188,135.203556 181.587186,136.220219 180.58593,137.04818 C179.870267,137.602241 179.062262,137.94853 178.161912,138.087045 C175.137662,138.571848 171.645922,138.877736 167.686693,139.004709 C163.727465,139.131681 160.48967,139.091281 157.973308,138.883508 C155.503119,138.721906 152.386525,136.840407 148.623526,133.23901 C148.494037,133.117514 148.365959,132.992724 148.239293,132.864641 L142.755756,132.687781 C142.721274,133.235248 142.657182,133.765279 142.563482,134.277874 C142.378795,135.316739 141.755476,136.009316 140.693526,136.355604 C137.646189,137.44064 133.756218,138.150531 129.023612,138.485276 C124.291006,138.820022 120.666523,138.756535 118.150162,138.294818 C116.026261,137.994701 113.873502,136.996237 111.691886,135.299425 C110.416092,134.30714 109.221221,133.172746 108.107274,131.896242 L70.9004639,128.900051 L69.1393808,143.080773 C52.4815548,145.382546 43.933558,146.533432 43.4953906,146.533432 C43.0572233,146.533432 42.6485194,140.867501 42.2692789,129.535638 C40.1385489,128.737709 38.7055557,128.15493 37.9702995,127.787301 C33.5824645,125.550365 31.692221,122.936475 26.7451519,117.666771 C21.7980827,112.397067 18.5072065,107.503771 16.8725232,102.986882 C16.3993257,101.610306 16.1412177,100.040149 16.0981994,98.2764118 C15.7970731,88.2532205 15.7325462,75.4768775 15.9046184,59.9473829 C14.3989891,60.0764368 12.1405447,58.8074058 9.12928505,56.1402908 C6.11802543,53.4731757 4.31126986,51.1932216 3.70901833,49.3004304 C2.67658657,46.1170995 1.97754457,42.4283065 1.61189133,38.2340525 C1.24623809,34.0397985 1.3215199,30.3510056 1.83773577,27.1676746 C2.22489768,24.9307388 3.57996436,23.7047261 5.90293581,23.4896365 C12.5757083,22.9068096 21.9965837,22.2138641 34.1655622,21.4108001 L32.5580688,3.7932133 C32.4577008,2.69321328 33.2680626,1.7201227 34.3680626,1.61975466 C34.4284832,1.61424166 34.4891234,1.61148087 34.5497951,1.61148087 L53.4059122,1.61148087 C54.2429892,1.61148087 54.9915131,2.13277611 55.2818002,2.91790745 L61.7187776,20.3278143 L68.0424221,20.3278143 C69.7201237,20.3278143 71.3117897,20.6934675 72.817419,21.424773 C78.2936681,24.1253892 83.8189752,28.3467755 89.3933387,34.0889319 L94.2068161,34.3208891 C94.2259239,34.01483 94.2484927,33.7046917 94.2745225,33.3904742 C94.4702868,31.027323 94.8338481,29.0207412 95.3652079,27.3707303 C95.7567357,26.1681796 96.5957244,25.4270734 97.882174,25.1474103 C99.7279491,24.6999494 101.811438,24.3643539 104.13264,24.1406238 C102.566528,22.6024777 101.37796,21.1622139 100.566938,19.819832 C99.3364212,17.8621915 98.5953143,15.4990402 98.3436177,12.7303775 C98.0919211,9.96171478 98.3855672,7.54263048 99.2245559,5.47312523 C99.6440502,4.38243992 100.413123,3.61336716 101.531775,3.16590631 C104.048741,2.15911987 107.125033,1.68369315 110.760651,1.73962552 C114.396268,1.79555788 117.416628,2.34090054 119.821728,3.37565348 C121.443774,4.07481095 122.981919,5.21443684 124.436166,6.79453244 C125.890414,8.37462804 126.771352,9.82188354 127.078981,11.136299 C127.61034,12.9820741 127.715214,15.2613265 127.393601,17.9740569 C127.071989,20.6867872 126.323891,22.9520567 125.149307,24.7698653 C124.925577,25.1334273 124.603964,25.4969887 124.18447,25.8605507 C125.219223,26.7275059 126.072194,27.7412834 126.743385,28.9018847 C127.414576,30.0624859 127.722205,31.0902471 127.666273,31.9851682 C127.621965,32.9960419 127.57992,34.0012343 127.540138,35.0007453 L128.871881,34.9796569 C128.870291,34.4280448 128.880924,33.8563678 128.903781,33.2646259 C129.029629,30.0065529 129.484081,27.552511 130.267138,25.9025001 C130.658666,24.9796125 131.581553,24.4762193 133.035801,24.3923204 C135.496834,24.1965562 137.636255,24.042742 139.454064,23.9308766 C139.454064,18.7850791 139.468047,15.4710737 139.496014,13.9888605 C139.551946,12.4507144 140.251103,11.4998609 141.593485,11.136299 C144.054519,10.465108 146.809198,10.1295125 149.857524,10.1295125 C152.90585,10.1295125 155.604597,10.465108 157.953765,11.136299 C159.296147,11.5278268 160.820309,12.6604616 162.526253,14.5342032 C164.232197,16.4079448 165.113135,17.9460904 165.169068,19.1486411 L165.378815,23.5113823 C167.504253,23.5673147 169.098332,23.6232477 170.161051,23.67918 C171.699197,23.7630789 173.293275,24.5741011 174.943286,26.1122473 C176.593297,27.6503934 177.669999,29.2304884 178.173393,30.8525334 C178.506467,31.8117876 178.75227,32.9233694 178.910803,34.1872788 L181.261108,34.1500612 C181.745723,33.4069908 182.261622,32.6713766 182.808805,31.9432187 C186.402474,27.1609831 190.646358,23.67918 195.540459,21.4978094 C196.575212,21.0503486 197.581998,20.8126355 198.560818,20.784669 C202.028638,20.6168713 205.699214,20.7636943 209.572545,21.2251381 C213.445876,21.6865819 216.850772,22.420697 219.787232,23.4274834 C221.605041,24.042742 223.262043,25.2033426 224.75824,26.9092865 C226.254437,28.6152304 227.002535,30.1813425 227.002535,31.6076233 C227.002535,32.1962592 226.968544,32.8028347 226.900563,33.4273497 L230.329613,33.3730499 C230.970292,32.4258008 231.672083,31.4947382 232.434987,30.5798621 C235.944756,26.3709357 239.992877,23.4135005 244.579348,21.7075566 C246.67682,21.148231 249.088913,20.7706861 251.815626,20.5749218 C254.542339,20.3791576 256.926465,20.4071241 258.968004,20.6588207 C263.330746,21.4978094 267.602596,23.4414664 271.783557,26.4897922 C274.364606,28.3716274 276.673876,30.4106678 278.711368,32.6069135 L286.446104,32.4844322 C286.654393,30.5102039 286.989582,28.8056363 287.451671,27.3707303 C287.843199,26.1681796 288.682187,25.4270734 289.968637,25.1474103 C291.814412,24.6999494 293.897901,24.3643539 296.219103,24.1406238 C294.652991,22.6024777 293.464423,21.1622139 292.653401,19.819832 C291.422884,17.8621915 290.681777,15.4990402 290.430081,12.7303775 C290.178384,9.96171478 290.47203,7.54263048 291.311019,5.47312523 C291.730513,4.38243992 292.499586,3.61336716 293.618238,3.16590631 C296.135204,2.15911987 299.211496,1.68369315 302.847114,1.73962552 C306.482731,1.79555788 309.503091,2.34090054 311.908191,3.37565348 C313.530237,4.07481095 315.068382,5.21443684 316.522629,6.79453244 C317.976877,8.37462804 318.857815,9.82188354 319.165444,11.136299 C319.696803,12.9820741 319.801677,15.2613265 319.480065,17.9740569 C319.158452,20.6867872 318.410354,22.9520567 317.23577,24.7698653 C317.01204,25.1334273 316.690427,25.4969887 316.270933,25.8605507 C317.305686,26.7275059 318.158657,27.7412834 318.829848,28.9018847 C319.494005,30.0503228 319.80218,31.0686905 319.754375,31.9569879 L321.668238,31.9266814 C321.869672,29.3405363 322.223974,27.2066278 322.731146,25.5249552 C323.066741,24.350371 323.919713,23.6092641 325.290061,23.3016351 C332.477398,21.6795901 338.26642,21.0223827 342.657127,21.3300117 C343.635947,21.385944 344.523877,21.819422 345.320916,22.6304442 C346.117956,23.4414664 347.005886,24.7418988 347.984706,26.5317416 C351.564391,23.6232477 354.836446,21.6236577 357.800873,20.5329724 C358.779693,20.1973769 359.828429,20.0855116 360.947081,20.1973769 C364.554732,20.5889048 367.896704,21.441877 370.972996,22.7562925 C374.049288,24.0707079 376.601212,25.6438117 378.628768,27.4756039 C380.656324,29.3073961 382.257394,31.2999943 383.431978,33.4533984 C384.606562,35.6068025 385.26377,37.7462237 385.403602,39.871662 C386.158691,51.8971669 386.298523,64.3002161 385.823096,77.0808108 C385.79513,78.563024 385.068006,79.5138781 383.641725,79.9333724 C383.285093,80.0443246 382.923268,80.1514869 382.556249,80.2548593 L385.129007,98.3325632 L398.226574,97.0675792 C398.560977,96.312848 399.168491,95.8397626 400.049115,95.6483224 C401.466183,95.3047905 403.065753,95.0471418 404.847824,94.8753761 C403.645463,93.6944857 402.732956,92.5887432 402.110305,91.5581481 C401.165593,90.0551968 400.596619,88.2409202 400.403382,86.1153178 C400.210146,83.9897155 400.435588,82.1324971 401.07971,80.5436631 C401.401771,79.7063046 401.992216,79.1158597 402.851046,78.7723278 C404.783411,77.9993815 407.145192,77.6343792 409.936387,77.6773205 C412.727582,77.7202618 415.046421,78.1389411 416.892904,78.9333583 C418.138206,79.4701267 419.319096,80.3450587 420.435574,81.5581552 C421.552052,82.7712516 422.22838,83.882362 422.464558,84.8914862 C422.872502,86.3085544 422.953018,88.0584188 422.706104,90.1410799 C422.459191,92.223741 421.884849,93.9628702 420.983078,95.3584675 C420.811312,95.6375872 420.564399,95.9167064 420.242338,96.1958261 C420.352851,96.2884179 420.460663,96.3831911 420.565774,96.4801456 L432.431523,96.9070954 C434.411339,95.1803145 436.574789,93.8804235 438.921874,93.0074225 C440.532179,92.578008 442.384029,92.2881532 444.477425,92.1378579 C446.570822,91.9875626 448.401201,92.0090335 449.968565,92.2022701 C453.317999,92.846392 456.597653,94.3386077 459.807527,96.6789175 C463.017402,99.0192273 465.679772,101.67623 467.794639,104.649926 C469.909506,107.623622 471.299736,110.516804 471.965329,113.329469 C472.416214,118.138913 471.380251,122.851739 468.85744,127.467946 C466.33463,132.084153 462.915416,135.648294 458.599799,138.16037 C457.805381,138.589784 457.064641,138.879639 456.377578,139.029934 C453.672266,139.652586 450.956219,139.888764 448.229436,139.738469 C445.322115,139.15976 442.57617,138.154402 439.9916,136.722395 L436.976144,137.086416 L422.668043,136.216185 C422.675209,136.403009 422.682529,136.58945 422.690001,136.775508 C422.732942,138.042281 422.163968,138.772286 420.983078,138.965522 C419.136595,139.287583 417.064669,139.464717 414.767301,139.496923 C412.469933,139.529129 410.440949,139.427143 408.680349,139.190965 C407.563871,139.04067 406.340039,138.299929 405.008854,136.968744 C404.353882,136.313772 403.852243,135.674393 403.503938,135.050607 L397.261484,134.670935 L393.493366,134.670935 Z" id="Path" fill="#000000" opacity="0.655064174"></path>
            <g id="Group-5" transform="translate(0.600296, 0.757489)">
                <g id="B" transform="translate(6.000000, 2.000000)">
                    <mask id="mask-2" fill="white">
                        <use xlink:href="#path-1"></use>
                    </mask>
                    <use id="Mask" fill="#FEE844" xlink:href="#path-1"></use>
                    <path d="M74.0894156,65.9010364 C78.4342322,67.836846 82.3918879,70.762069 85.9623808,74.6767064 C89.5328736,78.5913438 91.7698094,82.5489985 92.6731872,86.5496716 C91.7267911,92.0129566 88.6510055,97.6268043 83.4458284,103.391215 C79.9757103,107.234155 75.6806819,112.020828 70.5607432,117.751234 L63.9447471,116.863416 L58.7064513,136.28137 L43.2321283,138.036125 L48.2623978,115.828273 C40.1548408,115.707729 33.8366043,115.541207 29.3076882,115.328707 L33.9536311,105.972294 C44.3639843,106.316438 53.913978,106.144366 62.6036123,105.456078 C66.6473037,103.993466 70.3683591,101.34786 73.7667807,97.519259 C77.1652022,93.6906582 79.1655387,89.9911104 79.7677902,86.4206176 C78.4772505,82.2048549 75.9822068,78.5805889 72.28266,75.5478207 C68.5831132,72.5150524 63.7435894,70.3318897 57.7640885,68.9983317 C61.8938155,65.8580181 65.5933623,62.6531785 68.8627298,59.383811 C72.1320974,56.1144434 74.2829965,53.4043101 75.3154283,51.2534109 C73.8958346,47.4678275 71.583618,43.6499815 68.3787774,39.7998711 C65.1739369,35.9497607 61.7432528,33.1643465 58.0867234,31.4436266 L63.1198282,21.5709979 C68.3680226,23.8079337 73.3043369,27.6580432 77.9287712,33.1213282 C82.5532054,38.5846132 85.9193625,44.0694069 88.0272443,49.5757093 C86.8227402,52.2858427 84.9514577,55.0712578 82.4133966,57.9319538 C79.8753355,60.7926498 77.0791656,63.1048674 74.0248886,64.8686047 L74.0894156,65.9010364 Z M53.0536186,41.3162553 C48.192586,41.2302196 43.0089176,41.2947466 37.5026153,41.5098362 C37.4165796,50.3715418 37.3735613,57.1683848 37.3735613,61.9003634 L25.3070151,70.7405603 C25.3070151,63.771646 25.4575778,51.0383213 25.758704,32.5405853 C37.6746875,31.6802259 48.450694,31.3145726 58.0867234,31.4436266 L53.0536186,41.3162553 Z M25.758704,32.5405853 L13.6276309,43.5101727 C10.6163713,43.811299 10.8268169,43.4670515 5.32051454,44.4134476 L7.11040545,34.2828139 C14.9826976,33.4654718 21.1987968,32.8847289 25.758704,32.5405853 Z M57.7640885,68.9983317 L58.0221964,77.2577858 L37.5671422,78.3547445 C37.6961962,84.4632994 37.8897772,90.5288359 38.1478851,96.5513542 L33.9536311,105.972294 C32.2759295,105.19797 30.6304914,103.918185 29.0173168,102.132938 C27.4041421,100.347691 26.3394469,98.530182 25.823231,96.6804082 C25.4790874,87.603612 25.3070151,78.956996 25.3070151,70.7405603 L57.7640885,68.9983317 Z M49.5691614,21.4805645 L36.8950951,25.289604 L38.957484,2.43363394 L45.6420545,2.43363394 L49.5691614,21.4805645 Z" fill="#FEAC44" mask="url(#mask-2)"></path>
                </g>
            </g>
            <g id="Group" transform="translate(94.000000, 1.087557)">
                <path d="M7.90931972,4.76311309 C10.034758,3.72836015 12.9222772,3.21797578 16.5718781,3.23195872 C20.2214789,3.24594165 23.1089981,3.78429316 25.2344364,4.84701196 C25.849695,6.88855135 25.9825344,9.1817867 25.632956,11.7267193 C25.2833776,14.2716519 24.521296,16.2712412 23.3467118,17.7254885 C21.4170378,18.732275 19.0538865,19.2706258 16.2572573,19.3405418 C13.4606281,19.4104577 11.0974768,18.9560051 9.16780277,17.9771851 C7.90931972,16.4110731 7.15422989,14.2716519 6.90253328,11.5589216 C6.65083667,8.84619122 6.98643215,6.58092173 7.90931972,4.76311309 Z M25.9475768,25.5280834 C25.2204535,41.0214079 25.122571,56.7804125 25.6539307,72.8050967 C20.6759309,73.6720519 15.5161504,73.7559508 10.1745892,73.0567933 C9.47543174,59.9406031 9.44746588,48.5583233 10.0906903,38.9099532 L2.83343808,38.5324083 C2.66564034,36.6866332 2.68661506,34.6311108 2.89636223,32.3658413 C3.10610941,30.1005719 3.4626796,28.1988643 3.96607282,26.6607182 C9.50339825,25.2903698 16.8305664,24.9128248 25.9475768,25.5280834 Z M76.5385954,25.192488 C77.153854,26.9543642 77.4405083,29.3314991 77.3985588,32.3238919 C77.3566094,35.3162847 76.9580898,37.5675713 76.2029999,39.077751 C71.1690677,39.0218186 67.2677703,38.9938521 64.4991076,38.9938521 C64.9186019,51.8024127 65.2262309,63.0728278 65.4219951,72.8050967 C60.1363663,73.6440854 54.7388721,73.7279843 49.2295132,73.0567933 C48.6701876,60.5558617 48.3206086,49.2434972 48.1807773,39.1197004 L38.0709635,39.371397 C37.5116379,37.441723 37.3018907,35.0995464 37.441722,32.3448666 C37.5815532,29.5901868 37.9870646,27.4577574 38.6582556,25.9475778 C43.1608281,25.5560499 46.2930528,25.3183363 48.054929,25.2344374 C48.0269625,22.4378082 48.0409461,18.2148988 48.0968785,12.565708 C50.4460468,11.8945171 53.0329289,11.5589216 55.857524,11.5589216 C58.682119,11.5589216 61.1990851,11.8945171 63.4084223,12.565708 L63.9537649,24.8568925 C68.2605738,24.8568925 72.4555173,24.9687578 76.5385954,25.192488 Z M97.7230601,72.8050967 C93.4442177,70.2601641 90.1511871,66.631538 87.8439682,61.9192183 C85.5367492,57.2068987 84.4670387,52.0401264 84.6348364,46.4189021 C85.1661961,43.3426104 86.2289149,40.2523351 87.8229935,37.1480769 C89.417072,34.0438187 91.5984426,31.1353248 94.3671053,28.4225945 C97.135768,25.7098641 100.198077,23.6823083 103.554032,22.3399264 C107.301514,22.0602633 111.139888,22.1511539 115.069152,22.6125977 C118.998415,23.0740415 122.403311,23.8221395 125.283839,24.8568925 C125.283839,26.9543642 124.829387,29.3035326 123.920482,31.9043976 C123.011578,34.5052625 121.941867,36.5468019 120.711351,38.0290151 C117.131666,36.6586667 112.587143,36.169257 107.077784,36.5607848 C105.651503,37.7074025 104.448953,39.3014811 103.470133,41.3430204 C102.491313,43.3845598 101.862071,45.523981 101.582408,47.761284 C101.610375,50.1943512 102.155717,52.4875872 103.218436,54.6409913 C104.281155,56.7943955 105.749385,58.4723729 107.623127,59.6749236 C109.273138,60.0384855 111.671247,60.0734432 114.817455,59.7797971 C117.963663,59.4861511 120.935081,58.8918672 123.73171,57.9969462 C124.542732,58.9757661 125.123033,60.9334066 125.472611,63.8698671 C125.82219,66.8063275 125.815199,69.0296476 125.451637,70.5398272 C121.843985,71.8822091 117.166623,72.7631473 111.419551,73.1826416 C105.672478,73.602136 101.106981,73.4762877 97.7230601,72.8050967 Z M157.87855,73.7699337 C152.984449,72.7631473 148.663657,70.693642 144.916175,67.5614173 C141.168692,64.4291926 138.379054,60.7516259 136.547262,56.5287159 C134.71547,52.3058059 133.981355,47.9710312 134.344917,43.5243911 C135.211872,38.9658856 137.274386,34.7919168 140.532459,31.0024847 C143.790532,27.2130526 147.405174,24.5632464 151.376388,23.0530668 C155.459466,22.0183138 159.864156,21.7106848 164.59046,22.1301792 C168.002347,22.8293367 171.225462,24.2206592 174.259804,26.304148 C177.294147,28.3876368 179.811113,30.834687 181.810703,33.6452991 C183.810293,36.4559113 185.187632,39.371397 185.942722,42.3917563 C186.306284,46.2790708 185.781916,50.2083342 184.369618,54.1795476 C182.95732,58.150761 180.880823,61.7514206 178.140127,64.9815271 C175.399431,68.2116336 172.253223,70.7635573 168.701504,72.637299 C165.513347,73.5881531 161.905696,73.965698 157.87855,73.7699337 Z M162.031544,60.1783168 C164.184948,59.1715303 166.072673,57.2558393 167.694718,54.4312442 C169.316763,51.6066491 170.141768,48.6282392 170.169734,45.4960145 C169.386678,42.6993853 167.946414,40.3572087 165.848943,38.4694841 C163.751471,36.5817596 161.276454,35.6239143 158.423893,35.5959478 C156.522185,36.2112064 154.823233,37.4906642 153.327036,39.4343211 C151.83084,41.3779781 150.94291,43.5104081 150.663247,45.83161 C150.467483,48.6562051 151.43232,51.5437249 153.557758,54.4941683 C155.683196,57.4446117 158.507791,59.3393281 162.031544,60.1783168 Z M199.995783,4.76311309 C202.121221,3.72836015 205.00874,3.21797578 208.658341,3.23195872 C212.307942,3.24594165 215.195461,3.78429316 217.320899,4.84701196 C217.936158,6.88855135 218.068997,9.1817867 217.719419,11.7267193 C217.369841,14.2716519 216.607759,16.2712412 215.433175,17.7254885 C213.503501,18.732275 211.14035,19.2706258 208.34372,19.3405418 C205.547091,19.4104577 203.18394,18.9560051 201.254266,17.9771851 C199.995783,16.4110731 199.240693,14.2716519 198.988996,11.5589216 C198.7373,8.84619122 199.072895,6.58092173 199.995783,4.76311309 Z M218.03404,25.5280834 C217.306916,41.0214079 217.209034,56.7804125 217.740394,72.8050967 C212.762394,73.6720519 207.602613,73.7559508 202.261052,73.0567933 C201.561895,59.9406031 201.533929,48.5583233 202.177153,38.9099532 L194.919901,38.5324083 C194.752103,36.6866332 194.773078,34.6311108 194.982825,32.3658413 C195.192572,30.1005719 195.549143,28.1988643 196.052536,26.6607182 C201.589861,25.2903698 208.917029,24.9128248 218.03404,25.5280834 Z M283.601007,32.4497402 C284.384063,44.0557508 284.537877,56.9482103 284.062451,71.1271193 C281.65735,71.8542426 278.993561,72.4275518 276.071083,72.8470462 C273.148606,73.2665405 270.484817,73.4343382 268.079716,73.3504394 C268.219547,67.5614173 268.212556,61.5067158 268.058741,55.186334 C267.904926,48.8659522 267.632255,44.0557508 267.240727,40.7557284 C266.905132,39.9447062 266.380764,39.1616498 265.667623,38.40656 C264.954483,37.6514702 264.2763,37.1620599 263.633076,36.9383298 C260.13729,37.8891838 257.102947,39.2035993 254.530048,40.8815767 C254.390217,49.2434972 254.809711,59.8287384 255.788531,72.637299 C250.44697,73.5042542 244.97956,73.5881531 239.386302,72.8889956 C238.015954,59.9685696 237.638409,48.362559 238.253667,38.0709645 L230.199376,38.1129139 C230.031578,36.1273076 230.052553,33.8270798 230.2623,31.2122319 C230.472047,28.597384 230.828617,26.4789375 231.332011,24.8568925 C237.428662,23.3187463 243.203701,22.6335724 248.657127,22.8013702 L250.838498,30.3522685 L251.929183,30.6039651 C257.298711,25.6539317 261.843233,22.6475554 265.56275,21.5848365 C270.736513,21.9483985 274.868532,23.1509486 277.958808,25.192488 C281.049083,27.2340273 282.929816,29.653111 283.601007,32.4497402 Z" id="itcoin" fill="#FEE844"></path>
                <path d="M9.16780277,17.9771851 L12.5237576,11.3491744 C15.5161504,11.293242 17.9352347,11.2792585 19.7810098,11.307225 L25.2344364,4.84701196 C25.849695,6.88855135 25.9825344,9.1817867 25.632956,11.7267193 C25.2833776,14.2716519 24.521296,16.2712412 23.3467118,17.7254885 C21.4170378,18.732275 19.0538865,19.2706258 16.2572573,19.3405418 C13.4606281,19.4104577 11.0974768,18.9560051 9.16780277,17.9771851 Z M25.9475768,25.5280834 C25.2204535,41.0214079 25.122571,56.7804125 25.6539307,72.8050967 C20.6759309,73.6720519 15.5161504,73.7559508 10.1745892,73.0567933 L17.5996392,67.7711645 C17.2920102,54.822772 17.4318415,42.9650655 18.0191336,32.1980436 L25.9475768,25.5280834 Z M6.6927861,32.2819425 C11.1394262,32.0302459 14.9148754,32.0022794 18.0191336,32.1980436 L10.0906903,38.9099532 L2.83343808,38.5324083 L6.6927861,32.2819425 Z M56.1931194,31.8204987 C56.1092206,28.9959036 56.0113388,24.5912129 55.8994734,18.6064267 L63.4084223,12.565708 L63.9537649,24.8568925 L56.1931194,31.8204987 Z M49.2295132,73.0567933 L57.1579564,67.0999736 C56.5706644,46.5167839 56.2490518,34.7569591 56.1931194,31.8204987 C61.0872204,31.7365998 66.2190344,31.7645663 71.5885621,31.9043976 L76.5385954,25.192488 C77.153854,26.9543642 77.4405083,29.3314991 77.3985588,32.3238919 C77.3566094,35.3162847 76.9580898,37.5675713 76.2029999,39.077751 C71.1690677,39.0218186 67.2677703,38.9938521 64.4991076,38.9938521 C64.9186019,51.8024127 65.2262309,63.0728278 65.4219951,72.8050967 C60.1363663,73.6440854 54.7388721,73.7279843 49.2295132,73.0567933 Z M56.1931194,31.8204987 L48.1807773,39.1197004 L38.0709635,39.371397 L43.230744,32.2819425 C47.9011142,32.0582124 52.221906,31.9043976 56.1931194,31.8204987 Z M107.077784,36.5607848 C105.651503,37.7074025 104.448953,39.3014811 103.470133,41.3430204 C102.491313,43.3845598 101.862071,45.523981 101.582408,47.761284 C101.610375,50.1943512 102.155717,52.4875872 103.218436,54.6409913 C104.281155,56.7943955 105.749385,58.4723729 107.623127,59.6749236 L102.673093,66.2190354 C99.6247676,64.3173279 97.2546245,61.6605299 95.5626642,58.2486428 C93.8707039,54.8367556 93.0526899,51.1172388 93.1086223,47.090093 C93.6679479,43.5663405 95.0382963,40.1404698 97.2196669,36.8124815 C99.4010375,33.4844932 102.099784,31.0234594 105.315908,29.4293809 C109.846447,29.0937854 114.30707,29.359465 118.697778,30.2264202 L125.283839,24.8568925 C125.283839,26.9543642 124.829387,29.3035326 123.920482,31.9043976 C123.011578,34.5052625 121.941867,36.5468019 120.711351,38.0290151 C117.131666,36.6586667 112.587143,36.169257 107.077784,36.5607848 Z M97.7230601,72.8050967 L102.673093,66.2190354 C104.686666,66.6105633 107.357447,66.7434034 110.685436,66.6175551 C114.013424,66.4917067 117.145649,66.10717 120.082109,65.4639456 L123.73171,57.9969462 C124.542732,58.9757661 125.123033,60.9334066 125.472611,63.8698671 C125.82219,66.8063275 125.815199,69.0296476 125.451637,70.5398272 C121.843985,71.8822091 117.166623,72.7631473 111.419551,73.1826416 C105.672478,73.602136 101.106981,73.4762877 97.7230601,72.8050967 Z M161.989595,28.8420888 L164.59046,22.1301792 C168.002347,22.8293367 171.225462,24.2206592 174.259804,26.304148 C177.294147,28.3876368 179.811113,30.834687 181.810703,33.6452991 C183.810293,36.4559113 185.187632,39.371397 185.942722,42.3917563 C186.306284,46.2790708 185.781916,50.2083342 184.369618,54.1795476 C182.95732,58.150761 180.880823,61.7514206 178.140127,64.9815271 C175.399431,68.2116336 172.253223,70.7635573 168.701504,72.637299 C165.513347,73.5881531 161.905696,73.965698 157.87855,73.7699337 L159.640426,66.8902264 C161.653999,66.9741252 163.667572,66.7643781 165.681145,66.2609849 C169.400662,64.247412 172.455979,61.1291708 174.847096,56.9062608 C177.238214,52.6833508 178.321908,48.362559 178.098178,43.9438854 C177.17529,40.3082675 175.224641,37.0432034 172.246231,34.1486923 C169.267822,31.2541813 165.848943,29.4853133 161.989595,28.8420888 Z M159.640426,66.8902264 C156.060741,66.0792042 152.907542,64.4781339 150.180829,62.0870161 C147.454115,59.6958983 145.440542,56.9621932 144.14011,53.8859015 C142.839677,50.8096098 142.301327,47.7333175 142.525057,44.6570258 C143.112349,41.301071 144.53863,38.2177875 146.803899,35.4071754 C149.069169,32.5965632 151.642067,30.617948 154.522595,29.4713303 C157.039561,28.8840382 159.528561,28.6742911 161.989595,28.8420888 L158.423893,35.5959478 C156.522185,36.2112064 154.823233,37.4906642 153.327036,39.4343211 C151.83084,41.3779781 150.94291,43.5104081 150.663247,45.83161 C150.467483,48.6562051 151.43232,51.5437249 153.557758,54.4941683 C155.683196,57.4446117 158.507791,59.3393281 162.031544,60.1783168 L159.640426,66.8902264 Z M201.254266,17.9771851 L204.610221,11.3491744 C207.602613,11.293242 210.021698,11.2792585 211.867473,11.307225 L217.320899,4.84701196 C217.936158,6.88855135 218.068997,9.1817867 217.719419,11.7267193 C217.369841,14.2716519 216.607759,16.2712412 215.433175,17.7254885 C213.503501,18.732275 211.14035,19.2706258 208.34372,19.3405418 C205.547091,19.4104577 203.18394,18.9560051 201.254266,17.9771851 Z M218.03404,25.5280834 C217.306916,41.0214079 217.209034,56.7804125 217.740394,72.8050967 C212.762394,73.6720519 207.602613,73.7559508 202.261052,73.0567933 L209.686102,67.7711645 C209.378473,54.822772 209.518304,42.9650655 210.105597,32.1980436 L218.03404,25.5280834 Z M198.779249,32.2819425 C203.225889,32.0302459 207.001338,32.0022794 210.105597,32.1980436 L202.177153,38.9099532 L194.919901,38.5324083 L198.779249,32.2819425 Z M246.26601,41.6786159 L243.497347,30.3942179 L248.657127,22.8013702 L250.838498,30.3522685 L246.26601,41.6786159 Z M239.386302,72.8889956 L247.104998,66.6804792 C246.377875,56.752446 246.098212,48.418492 246.26601,41.6786159 C248.782976,39.0497844 251.761386,36.5258272 255.201239,34.1067429 C258.641093,31.6876586 261.773318,30.0726054 264.597913,29.2615832 C267.478441,29.5692121 269.869559,30.4151926 271.771266,31.799524 C273.672974,33.1838553 274.889507,34.7849256 275.420867,36.6027343 L267.240727,40.7557284 C266.905132,39.9447062 266.380764,39.1616498 265.667623,38.40656 C264.954483,37.6514702 264.2763,37.1620599 263.633076,36.9383298 C260.13729,37.8891838 257.102947,39.2035993 254.530048,40.8815767 C254.278352,47.7892505 254.697846,58.3744911 255.788531,72.637299 C250.44697,73.5042542 244.97956,73.5881531 239.386302,72.8889956 Z M236.743488,30.6459145 C239.344353,30.3942179 241.595639,30.310319 243.497347,30.3942179 L238.253667,38.0709645 L230.199376,38.1129139 L236.743488,30.6459145 Z M284.062451,71.1271193 C281.65735,71.8542426 278.993561,72.4275518 276.071083,72.8470462 C273.148606,73.2665405 270.484817,73.4343382 268.079716,73.3504394 L276.217906,66.3868332 C276.357737,54.3053959 276.092058,44.3773627 275.420867,36.6027343 L283.601007,32.4497402 C284.384063,44.0557508 284.537877,56.9482103 284.062451,71.1271193 Z" id="itcoin" fill="#FEAC44"></path>
            </g>
            <g id="Group-2" transform="translate(101.639019, 88.824219)">
                <path d="M11.6631078,42.9950089 C8.13096778,40.8941935 5.41260516,37.8988003 3.50801988,34.0088293 C1.6034346,30.1188583 0.720399613,25.8537414 0.858914906,21.2134791 C1.29754684,18.6740323 2.17481019,16.1230421 3.49070547,13.5605092 C4.80660075,10.9979763 6.60729956,8.59704469 8.89280189,6.35771395 C11.1783042,4.11838321 13.7062083,2.44465693 16.4765142,1.33653458 C19.5700222,1.10567558 22.7385595,1.18070488 25.9821262,1.56162193 C29.2256928,1.94253899 32.0363986,2.56008616 34.4142446,3.41426398 C34.4142446,5.14570514 34.0390992,7.08491924 33.2888079,9.23190628 C32.5385165,11.3788933 31.6554815,13.0641629 30.6397029,14.2877145 C27.6847101,13.1565061 23.9332539,12.7525035 19.3853353,13.0757057 C18.2079553,14.0222266 17.2152622,15.3381219 16.4072565,17.0233915 C15.5992508,18.7086611 15.0798185,20.4747311 14.8489595,22.3216015 C14.8720455,24.3300732 15.3222202,26.2231157 16.1994836,28.0007285 C17.0767469,29.7783412 18.2887558,31.1634941 19.83551,32.1561873 C21.1975769,32.4563039 23.1771915,32.4851611 25.7743532,32.2427593 C28.371515,32.0003575 30.8243898,31.5097824 33.1329782,30.7710343 C33.8024686,31.57904 34.281501,33.1950519 34.5700743,35.6190696 C34.8586477,38.0430872 34.8528765,39.8784148 34.5527599,41.1250525 C31.5746811,42.2331748 27.7135673,42.9603801 22.9694185,43.3066683 C18.2252698,43.6529566 14.4564997,43.5490701 11.6631078,42.9950089 Z M75.1377407,5.69976631 C76.4998076,8.8163604 77.4867291,13.1449633 78.0985051,18.685575 C78.7102812,24.2261867 78.8776536,29.2819949 78.600623,33.8529996 C78.1619911,35.5382692 77.400157,37.2119954 76.3151207,38.874179 C75.2300844,40.5363625 74.0411611,41.8291717 72.7483519,42.7526072 C69.3778133,43.375926 65.4243558,43.7453003 60.88798,43.8607295 C56.3516041,43.9761587 52.3635178,43.7799291 48.9237215,43.2720395 C46.9845074,41.6791136 45.3858099,39.2608677 44.1276295,36.017301 C42.8694491,32.7737344 42.2634447,29.7667984 42.3096163,26.9964926 C42.7944198,25.6575113 43.5158535,24.2896727 44.4739178,22.892977 C45.431982,21.4962813 46.4189035,20.4285589 47.4346821,19.6898109 C52.5135764,18.3508296 58.5736205,17.6813391 65.6148143,17.6813391 C65.3839553,16.1576709 65.1415536,14.8071468 64.887609,13.6297668 C59.3008257,12.6139882 52.7559782,12.3138715 45.2530663,12.7294174 C44.9529496,10.882547 44.8894636,8.89716081 45.0626078,6.77325983 C45.2357519,4.64935885 45.6570694,2.88328886 46.3265598,1.47504988 C51.9595152,1.1518477 57.5751557,1.36539176 63.1734823,2.1156831 C68.7718089,2.86597445 72.7598947,4.06066885 75.1377407,5.69976631 Z M66.0996179,32.4678467 C66.2150471,30.482461 66.2496759,28.4162743 66.2035043,26.2692873 C61.4939844,26.5001463 57.7540715,27.1350079 54.9837656,28.1738726 C54.914508,30.1823443 55.5609128,32.040758 56.9229797,33.7491131 C60.3396904,33.6567694 63.3985696,33.2296808 66.0996179,32.4678467 Z M108.554555,44.1031313 C105.068587,44.0569597 101.276731,43.6414138 97.1789867,42.8564936 C93.0812428,42.0715735 89.7626469,41.0442521 87.2232,39.7745284 C87.2462861,37.8122282 87.6791464,35.8095281 88.5217809,33.7664275 C89.3644154,31.723327 90.3628802,30.1592583 91.5171741,29.074222 C93.9642778,30.0900006 96.8557845,31.0365221 100.191694,31.9137855 C103.527604,32.7910488 106.211338,33.2643096 108.242896,33.3335672 C108.681528,32.75642 109.016273,31.9484143 109.247132,30.9095496 C109.477991,29.8706849 109.524162,28.9357067 109.385647,28.1046149 C104.145152,26.7656336 98.2697946,25.6575113 91.7595759,24.7802479 C91.0208278,24.2031007 90.3224797,23.3777806 89.6645321,22.304287 C89.0065844,21.2307935 88.5390953,20.1861572 88.2620647,19.1703785 C88.3544084,16.0076129 89.1739569,12.7640462 90.7207112,9.43967922 C92.2674655,6.11531219 94.2182223,3.65666574 96.5729823,2.06373987 C100.474497,1.44042105 104.583783,1.18070488 108.900843,1.28459135 C113.217904,1.38847782 116.877015,1.79825205 119.87818,2.51391457 C120.362984,4.03758279 120.432242,5.91331089 120.085953,8.14109835 C119.739665,10.3688858 119.150975,12.0022121 118.319883,13.0410768 C116.426841,12.394672 113.973966,11.8983257 110.961258,11.5520374 C107.948551,11.2057492 105.287903,11.1134055 102.979315,11.2750068 C102.125137,12.2907855 101.62879,13.6759384 101.490275,15.4304656 C106.684599,16.0076129 112.040524,17.0118487 117.558049,18.4431733 C119.035546,19.4589519 120.368756,21.0980499 121.557678,23.3604662 C122.746601,25.6228824 123.387234,27.7929555 123.479578,29.8706849 C122.440713,32.8718498 120.484185,35.786442 117.609992,38.6144628 C114.7358,41.4424835 111.717321,43.2720395 108.554555,44.1031313 Z M149.070278,3.96832515 C148.470046,16.7579037 148.389245,29.7667984 148.827877,42.9950089 C144.718589,43.7106714 140.459244,43.7799291 136.049841,43.2027819 C135.472694,32.375503 135.449608,22.9795491 135.980583,15.0149198 L129.989797,14.7032603 C129.851281,13.1795921 129.868596,11.4827798 130.04174,9.61282333 C130.214884,7.74286688 130.509229,6.17302707 130.924775,4.90330337 C135.49578,3.77209497 141.544281,3.46043556 149.070278,3.96832515 Z M203.195129,9.68208098 C203.841534,19.2627222 203.968506,29.9053137 203.576046,41.609856 C201.59066,42.2100888 199.39173,42.6833495 196.979255,43.0296377 C194.56678,43.375926 192.36785,43.5144413 190.382464,43.4451836 C190.497894,38.666406 190.492123,33.6683127 190.36515,28.4509032 C190.238177,23.2334936 190.01309,19.2627222 189.689888,16.538588 C189.412857,15.8690976 188.979997,15.2226927 188.391307,14.5993739 C187.802617,13.9760551 187.242784,13.5720519 186.711809,13.3873651 C183.826074,14.1722852 181.321255,15.2573215 179.197355,16.6424744 C179.081925,23.545153 179.428214,32.2831598 180.236219,42.8564936 C175.826816,43.5721562 171.313526,43.6414138 166.696349,43.0642666 C165.565141,32.398589 165.253482,22.8179477 165.761371,14.3223433 L159.112637,14.3569721 C158.974122,12.7178747 158.991436,10.8190605 159.16458,8.66053069 C159.337724,6.50200089 159.632069,4.75324532 160.047615,3.41426398 C165.080337,2.14454028 169.847572,1.57893634 174.349319,1.71745164 L176.150018,7.95063982 L177.050367,8.15841276 C181.482857,4.07221162 185.234313,1.59047911 188.304735,0.713215764 C192.575623,1.01333241 195.986562,2.00602499 198.537552,3.69129456 C201.088542,5.37656413 202.641068,7.37349259 203.195129,9.68208098 Z M233.807009,43.7914719 C229.766979,42.9603801 226.20021,41.252025 223.106702,38.666406 C220.013194,36.080787 217.710378,33.0449939 216.198252,29.5590255 C214.686127,26.0730571 214.080122,22.4947456 214.380239,18.8240903 C215.095901,15.0610913 216.798485,11.6155234 219.48799,8.48738658 C222.177496,5.35924972 225.161346,3.17186221 228.439541,1.92522458 C231.81008,1.07104676 235.446106,0.817102234 239.34762,1.16339047 C242.164098,1.7405377 244.824746,2.88905998 247.329564,4.60895838 C249.834382,6.32885677 251.912112,8.34887129 253.562752,10.6690024 C255.213393,12.9891336 256.350373,15.3958368 256.973691,17.8891121 C257.273808,21.0980499 256.840948,24.341616 255.675111,27.6198114 C254.509273,30.8980069 252.795147,33.870314 250.53273,36.5367334 C248.270314,39.2031528 245.673152,41.3097393 242.741245,42.8564936 C240.109455,43.6414138 237.131376,43.9530732 233.807009,43.7914719 Z M237.235262,32.5717331 C239.012875,31.7406414 240.571172,30.1592583 241.910153,27.8275843 C243.249135,25.4959104 243.930168,23.037264 243.953254,20.451645 C243.306849,18.1430566 242.117926,16.2096142 240.386485,14.6513171 C238.655044,13.0930201 236.611943,12.3023288 234.257183,12.2792427 C232.687344,12.7871323 231.284876,13.8433114 230.049781,15.44778 C228.814687,17.0522487 228.08171,18.8125475 227.850851,20.7286756 C227.68925,23.0603495 228.485713,25.4439672 230.24024,27.8795276 C231.994767,30.315088 234.326441,31.8791567 237.235262,32.5717331 Z" id="casino" fill="#F6F6F6"></path>
                <path d="M19.3853353,13.0757057 C18.2079553,14.0222266 17.2152622,15.3381219 16.4072565,17.0233915 C15.5992508,18.7086611 15.0798185,20.4747311 14.8489595,22.3216015 C14.8720455,24.3300732 15.3222202,26.2231157 16.1994836,28.0007285 C17.0767469,29.7783412 18.2887558,31.1634941 19.83551,32.1561873 L15.7493089,37.5582837 C13.2329476,35.9884439 11.276419,33.7952847 9.87972336,30.9788073 C8.48302766,28.1623298 7.80776561,25.0919073 7.8539372,21.7675403 C8.31565466,18.8587191 9.44686307,16.0306984 11.2475619,13.2834786 C13.0482607,10.5362588 15.2760481,8.50470099 17.9309248,7.18880571 C21.6708377,6.91177512 25.3530357,7.13109083 28.9775194,7.84675335 L34.4142446,3.41426398 C34.4142446,5.14570514 34.0390992,7.08491924 33.2888079,9.23190628 C32.5385165,11.3788933 31.6554815,13.0641629 30.6397029,14.2877145 C27.6847101,13.1565061 23.9332539,12.7525035 19.3853353,13.0757057 Z M11.6631078,42.9950089 L15.7493089,37.5582837 C17.4114924,37.8814858 19.6161943,37.991144 22.3634141,37.8872575 C25.1106339,37.783371 27.6962529,37.46594 30.1202705,36.9349649 L33.1329782,30.7710343 C33.8024686,31.57904 34.281501,33.1950519 34.5700743,35.6190696 C34.8586477,38.0430872 34.8528765,39.8784148 34.5527599,41.1250525 C31.5746811,42.2331748 27.7135673,42.9603801 22.9694185,43.3066683 C18.2252698,43.6529566 14.4564997,43.5490701 11.6631078,42.9950089 Z M75.1377407,5.69976631 C76.4998076,8.8163604 77.4867291,13.1449633 78.0985051,18.685575 C78.7102812,24.2261867 78.8776536,29.2819949 78.600623,33.8529996 C78.1619911,35.5382692 77.400157,37.2119954 76.3151207,38.874179 C75.2300844,40.5363625 74.0411611,41.8291717 72.7483519,42.7526072 C69.3778133,43.375926 65.4243558,43.7453003 60.88798,43.8607295 C56.3516041,43.9761587 52.3635178,43.7799291 48.9237215,43.2720395 L52.940665,38.4932619 C55.272339,38.7241209 58.008016,38.7587497 61.1476961,38.5971484 C64.2873763,38.435547 66.9768812,38.1123448 69.216212,37.6275413 C69.9087884,37.1196517 70.54365,36.4213042 71.1207972,35.5324975 C71.6979445,34.6436909 72.1134903,33.7491131 72.3674349,32.8487637 C72.5290362,29.8706849 72.4713213,26.2346585 72.1942907,21.9406844 C71.7325733,16.8617902 71.0169108,12.7640462 70.0473037,9.64745216 L75.1377407,5.69976631 Z M45.2530663,12.7294174 L49.6855557,6.91177512 C58.9660803,6.91177512 65.7533296,7.82366729 70.0473037,9.64745216 L64.887609,13.6297668 C59.3008257,12.6139882 52.7559782,12.3138715 45.2530663,12.7294174 Z M66.2035043,26.2692873 C61.4939844,26.5001463 57.7540715,27.1350079 54.9837656,28.1738726 C54.914508,30.1823443 55.5609128,32.040758 56.9229797,33.7491131 L52.940665,38.4932619 C51.6709413,37.2927959 50.6378483,35.6710128 49.8413854,33.6279122 C49.0449224,31.5848117 48.646691,29.6398259 48.646691,27.7929555 C49.2930958,26.107686 50.2165308,24.7917907 51.4169968,23.8452697 C56.1957744,22.4370307 63.1215391,21.8021691 72.1942907,21.9406844 L66.2035043,26.2692873 Z M102.979315,11.2750068 C102.125137,12.2907855 101.62879,13.6759384 101.490275,15.4304656 L96.7461264,20.1399856 C95.8688631,19.4243231 95.2455443,18.4085444 94.87617,17.0926491 C94.9685137,15.130349 95.4590883,13.1565061 96.3478949,11.1711204 C97.2367016,9.18573469 98.3736811,7.67360923 99.758834,6.63474454 C104.629955,5.98833966 109.755021,6.09222613 115.134032,6.94640394 L119.87818,2.51391457 C120.362984,4.03758279 120.432242,5.91331089 120.085953,8.14109835 C119.739665,10.3688858 119.150975,12.0022121 118.319883,13.0410768 C116.426841,12.394672 113.973966,11.8983257 110.961258,11.5520374 C107.948551,11.2057492 105.287903,11.1134055 102.979315,11.2750068 Z M113.298704,23.2219509 L117.558049,18.4431733 C119.035546,19.4589519 120.368756,21.0980499 121.557678,23.3604662 C122.746601,25.6228824 123.387234,27.7929555 123.479578,29.8706849 C122.440713,32.8718498 120.484185,35.786442 117.609992,38.6144628 C114.7358,41.4424835 111.717321,43.2720395 108.554555,44.1031313 C105.068587,44.0569597 101.276731,43.6414138 97.1789867,42.8564936 C93.0812428,42.0715735 89.7626469,41.0442521 87.2232,39.7745284 L93.1447288,35.7575849 C95.6610901,36.6117627 98.3159662,37.3101103 101.109358,37.8526287 C103.90275,38.3951471 106.33831,38.6779488 108.41604,38.7010348 C110.193653,38.0315444 111.855836,36.7618207 113.40259,34.8918643 C114.949345,33.0219078 115.976666,31.1288653 116.484556,29.2127373 C116.415298,28.1507865 116.063238,27.0253498 115.428377,25.836427 C114.793515,24.6475043 114.083624,23.776012 113.298704,23.2219509 Z M96.7461264,20.1399856 C102.263652,20.7863905 107.781178,21.8137119 113.298704,23.2219509 L109.385647,28.1046149 C104.145152,26.7656336 98.2697946,25.6575113 91.7595759,24.7802479 L96.7461264,20.1399856 Z M149.070278,3.96832515 C148.470046,16.7579037 148.389245,29.7667984 148.827877,42.9950089 C144.718589,43.7106714 140.459244,43.7799291 136.049841,43.2027819 L142.179142,38.8395501 C141.925198,28.1507865 142.040627,18.3623728 142.525431,9.47430804 L149.070278,3.96832515 Z M133.175648,9.54356569 C136.846304,9.33579275 139.962898,9.31270669 142.525431,9.47430804 L135.980583,15.0149198 L129.989797,14.7032603 L133.175648,9.54356569 Z M172.375476,17.3004221 L170.089974,7.98526864 L174.349319,1.71745164 L176.150018,7.95063982 L172.375476,17.3004221 Z M166.696349,43.0642666 L173.068053,37.9392007 C172.46782,29.7437124 172.236961,22.8641199 172.375476,17.3004221 C174.453206,15.130349 176.911852,13.0468485 179.751416,11.0499195 C182.590979,9.05299051 185.176598,7.71978082 187.508272,7.05029041 C189.886118,7.30423494 191.859961,8.00258305 193.429801,9.14533422 C194.999641,10.2880854 196.003877,11.6097523 196.442508,13.1103345 L189.689888,16.538588 C189.412857,15.8690976 188.979997,15.2226927 188.391307,14.5993739 C187.802617,13.9760551 187.242784,13.5720519 186.711809,13.3873651 C183.826074,14.1722852 181.321255,15.2573215 179.197355,16.6424744 C178.989582,22.3446875 179.33587,31.0826937 180.236219,42.8564936 C175.826816,43.5721562 171.313526,43.6414138 166.696349,43.0642666 Z M164.514733,8.19304158 C166.661721,7.98526864 168.520134,7.916011 170.089974,7.98526864 L165.761371,14.3223433 L159.112637,14.3569721 L164.514733,8.19304158 Z M203.576046,41.609856 C201.59066,42.2100888 199.39173,42.6833495 196.979255,43.0296377 C194.56678,43.375926 192.36785,43.5144413 190.382464,43.4451836 L197.100456,37.696799 C197.215885,27.7236979 196.99657,19.5282095 196.442508,13.1103345 L203.195129,9.68208098 C203.841534,19.2627222 203.968506,29.9053137 203.576046,41.609856 Z M237.200633,6.70400218 L239.34762,1.16339047 C242.164098,1.7405377 244.824746,2.88905998 247.329564,4.60895838 C249.834382,6.32885677 251.912112,8.34887129 253.562752,10.6690024 C255.213393,12.9891336 256.350373,15.3958368 256.973691,17.8891121 C257.273808,21.0980499 256.840948,24.341616 255.675111,27.6198114 C254.509273,30.8980069 252.795147,33.870314 250.53273,36.5367334 C248.270314,39.2031528 245.673152,41.3097393 242.741245,42.8564936 C240.109455,43.6414138 237.131376,43.9530732 233.807009,43.7914719 L235.261419,38.1123448 C236.923603,38.1816025 238.585786,38.0084584 240.24797,37.5929125 C243.318392,35.930729 245.840525,33.3566533 247.814368,29.8706849 C249.788211,26.3847165 250.682788,22.8179477 250.498102,19.1703785 C249.736267,16.1692137 248.126027,13.4739371 245.667381,11.0845483 C243.208734,8.69515952 240.386485,7.2349773 237.200633,6.70400218 Z M235.261419,38.1123448 C232.306427,37.4428544 229.703493,36.1211875 227.45262,34.1473446 C225.201746,32.1735017 223.539563,29.9168565 222.466069,27.3774096 C221.392576,24.8379628 220.948173,22.2985154 221.132859,19.7590685 C221.617663,16.9887627 222.795043,14.4435442 224.664999,12.123413 C226.534956,9.80328186 228.658857,8.16995552 231.036703,7.22343453 C233.114432,6.73863101 235.169076,6.56548689 237.200633,6.70400218 L234.257183,12.2792427 C232.687344,12.7871323 231.284876,13.8433114 230.049781,15.44778 C228.814687,17.0522487 228.08171,18.8125475 227.850851,20.7286756 C227.68925,23.0603495 228.485713,25.4439672 230.24024,27.8795276 C231.994767,30.315088 234.326441,31.8791567 237.235262,32.5717331 L235.261419,38.1123448 Z" id="casino" fill="#C2D6E4"></path>
            </g>
            <g id="Group-4" transform="translate(364.513831, 110.537060)">
                <path d="M20.4548378,20.760403 C18.5456581,21.7288273 15.7095581,22.1853703 11.946537,22.1300319 C8.18351597,22.0746936 5.34741592,21.5351428 3.43823624,20.5113796 C2.63582759,18.1871609 2.35913467,15.5170764 2.60815811,12.5011257 C2.85718155,9.48517497 3.50740962,7.00877565 4.5588417,5.07192648 C6.38501358,3.93748659 8.93750381,3.18349875 12.2163124,2.80996359 C15.495121,2.43642843 18.172123,2.62319601 20.2473183,3.37026632 C21.0497269,4.31102174 21.6031127,5.96426046 21.9074745,8.32998312 C22.2118363,10.6957058 22.2256713,13.0821804 21.9489784,15.4894069 C21.6722855,17.8966335 21.1742386,19.653632 20.4548378,20.760403 Z" id="." fill="#FEE844"></path>
                <path d="M3.43823624,20.5113796 L8.08667374,12.5011257 C10.6322464,12.3351101 13.3023315,12.2244328 16.0969276,12.1690944 L20.2473183,3.37026632 C21.0497269,4.31102174 21.6031127,5.96426046 21.9074745,8.32998312 C22.2118363,10.6957058 22.2256713,13.0821804 21.9489784,15.4894069 C21.6722855,17.8966335 21.1742386,19.653632 20.4548378,20.760403 C18.5456581,21.7288273 15.7095581,22.1853703 11.946537,22.1300319 C8.18351597,22.0746936 5.34741592,21.5351428 3.43823624,20.5113796 Z" id="." fill="#FEAC44"></path>
            </g>
            <g id="Group-3" transform="translate(396.513831, 76.824219)">
                <path d="M6.62706899,4.00929902 C8.25884471,3.21488181 10.4756975,2.8230413 13.2776279,2.8337765 C16.0795583,2.8445117 18.2964111,3.2578236 19.9281869,4.07371122 C20.4005431,5.64107474 20.5025288,7.40167436 20.2341448,9.35551105 C19.9657608,11.3093477 19.3806832,12.8445047 18.4789125,13.9609829 C16.9974321,14.7339292 15.1831555,15.1472406 13.0360822,15.2009176 C10.8890089,15.2545946 9.07473233,14.9056949 7.59325188,14.1542194 C6.62706899,12.9518587 6.04735925,11.3093477 5.85412267,9.22668666 C5.66088609,7.14402559 5.91853486,5.40489638 6.62706899,4.00929902 Z M20.4756905,19.9513168 C19.9174517,31.8461016 19.8423038,43.9448587 20.2502478,56.2475876 C16.4284575,56.9131805 12.4671077,56.9775926 8.3661982,56.4408242 C7.82942976,46.3710512 7.80795936,37.6324638 8.30178601,30.2250616 L2.73013131,29.9352067 C2.60130692,28.5181385 2.61740997,26.9400398 2.77844045,25.2009106 C2.93947093,23.4617813 3.21322275,22.0017718 3.59969591,20.8208814 C7.85090066,19.7688154 13.4762324,19.4789606 20.4756905,19.9513168 Z M48.0119031,56.9883278 C44.254525,56.2153815 40.937297,54.6265476 38.0602192,52.2218256 C35.1831414,49.8171035 33.041436,46.9937027 31.635103,43.7516222 C30.2287699,40.5095416 29.6651632,37.1815785 29.9442829,33.7677322 C30.6098757,30.2680029 32.1933418,27.0634963 34.6946821,24.1542124 C37.1960225,21.2449285 39.9711141,19.2105766 43.0199581,18.0511571 C46.1546847,17.2567399 49.5363248,17.020562 53.1648785,17.342623 C55.7843075,17.8793914 58.2588096,18.94756 60.5883838,20.5471296 C62.9179579,22.1466992 64.8503237,24.025388 66.3854811,26.1831965 C67.9206386,28.341005 68.9780719,30.5793287 69.5577817,32.8981676 C69.8369013,35.8825994 69.4343251,38.8992368 68.350053,41.9480808 C67.2657809,44.9969247 65.6715792,47.7612812 63.5674477,50.2411506 C61.4633162,52.7210201 59.047859,54.6802241 56.321076,56.1187632 C53.8734126,56.8487683 51.1036883,57.1386231 48.0119031,56.9883278 Z M51.2003066,46.5535526 C52.8535527,45.7806062 54.3028271,44.309861 55.5481297,42.1413173 C56.7934322,39.9727737 57.4268185,37.6861408 57.4482893,35.2814188 C56.8471087,33.1343455 55.7413662,31.3361719 54.1310614,29.8868976 C52.5207566,28.4376233 50.6205969,27.7022509 48.4305823,27.68078 C46.9705728,28.1531362 45.6662259,29.1354222 44.5175416,30.6276378 C43.3688573,32.1198535 42.6871619,33.756997 42.4724545,35.5390675 C42.3221592,37.7076112 43.0628994,39.9244645 44.6946751,42.1896265 C46.3264508,44.4547884 48.4949945,45.9094306 51.2003066,46.5535526 Z" id="io" fill="#F6F6F6"></path>
                <path d="M7.59325188,14.1542194 L10.1697396,9.06565618 C12.4671077,9.02271488 14.3243261,9.01197919 15.7413943,9.03345008 L19.9281869,4.07371122 C20.4005431,5.64107474 20.5025288,7.40167436 20.2341448,9.35551105 C19.9657608,11.3093477 19.3806832,12.8445047 18.4789125,13.9609829 C16.9974321,14.7339292 15.1831555,15.1472406 13.0360822,15.2009176 C10.8890089,15.2545946 9.07473233,14.9056949 7.59325188,14.1542194 Z M20.4756905,19.9513168 C19.9174517,31.8461016 19.8423038,43.9448587 20.2502478,56.2475876 C16.4284575,56.9131805 12.4671077,56.9775926 8.3661982,56.4408242 L14.0666773,52.382856 C13.8304994,42.4419074 13.9378529,33.3383178 14.3887383,25.0720862 L20.4756905,19.9513168 Z M5.69309219,25.1364984 C9.10693842,24.9432618 12.0054871,24.9217909 14.3887383,25.0720862 L8.30178601,30.2250616 L2.73013131,29.9352067 L5.69309219,25.1364984 Z M51.1681005,22.4955984 L53.1648785,17.342623 C55.7843075,17.8793914 58.2588096,18.94756 60.5883838,20.5471296 C62.9179579,22.1466992 64.8503237,24.025388 66.3854811,26.1831965 C67.9206386,28.341005 68.9780719,30.5793287 69.5577817,32.8981676 C69.8369013,35.8825994 69.4343251,38.8992368 68.350053,41.9480808 C67.2657809,44.9969247 65.6715792,47.7612812 63.5674477,50.2411506 C61.4633162,52.7210201 59.047859,54.6802241 56.321076,56.1187632 C53.8734126,56.8487683 51.1036883,57.1386231 48.0119031,56.9883278 L49.3645591,51.706528 C50.9104517,51.7709402 52.4563444,51.6099097 54.002237,51.2234366 C56.8578444,49.6775439 59.2035216,47.2835576 61.0392691,44.041477 C62.8750166,40.7993965 63.7070073,37.4821685 63.5352416,34.0897932 C62.8267075,31.298598 61.329124,28.7918903 59.0424911,26.5696697 C56.7558583,24.347449 54.1310614,22.9894251 51.1681005,22.4955984 Z M49.3645591,51.706528 C46.6163057,51.083877 44.1954806,49.8546775 42.1020843,48.01893 C40.0086881,46.1831825 38.4627954,44.0844183 37.4644064,41.7226381 C36.4660174,39.3608578 36.052706,36.9990771 36.2244717,34.6372968 C36.6753571,32.0608091 37.7703644,29.693661 39.5094936,27.5358526 C41.2486228,25.3780441 43.2239299,23.8589897 45.4354153,22.9786899 C47.3677811,22.5278045 49.278676,22.3667741 51.1681005,22.4955984 L48.4305823,27.68078 C46.9705728,28.1531362 45.6662259,29.1354222 44.5175416,30.6276378 C43.3688573,32.1198535 42.6871619,33.756997 42.4724545,35.5390675 C42.3221592,37.7076112 43.0628994,39.9244645 44.6946751,42.1896265 C46.3264508,44.4547884 48.4949945,45.9094306 51.2003066,46.5535526 L49.3645591,51.706528 Z" id="io" fill="#C2D6E4"></path>
            </g>
        </g>
    </g>
</svg>