<svg width="119" height="52" xmlns="http://www.w3.org/2000/svg"><defs><linearGradient x1="50%" y1=".03%" x2="50%" y2="100.029%" id="a"><stop stop-color="#FFD12F" offset="0%"/><stop stop-color="#FFDC4E" offset="41.12%"/><stop stop-color="#FFE362" offset="76.06%"/><stop stop-color="#FFE569" offset="100%"/></linearGradient><linearGradient x1="49.992%" y1=".031%" x2="49.992%" y2="100.023%" id="b"><stop stop-color="#FFD12F" offset="0%"/><stop stop-color="#FFDC4E" offset="41.12%"/><stop stop-color="#FFE362" offset="76.06%"/><stop stop-color="#FFE569" offset="100%"/></linearGradient><linearGradient x1="50.009%" y1=".028%" x2="50.009%" y2="100.025%" id="c"><stop stop-color="#FFD12F" offset="0%"/><stop stop-color="#FFDC4E" offset="41.12%"/><stop stop-color="#FFE362" offset="76.06%"/><stop stop-color="#FFE569" offset="100%"/></linearGradient><linearGradient x1="50.019%" y1=".03%" x2="50.019%" y2="100.029%" id="d"><stop stop-color="#FFD12F" offset="0%"/><stop stop-color="#FFDC4E" offset="41.12%"/><stop stop-color="#FFE362" offset="76.06%"/><stop stop-color="#FFE569" offset="100%"/></linearGradient><linearGradient x1="50.034%" y1=".075%" x2="50.034%" y2="100.186%" id="e"><stop stop-color="#EDB311" offset="8.244%"/><stop stop-color="#F3C42F" offset="30.54%"/><stop stop-color="#FAD64E" offset="59.24%"/><stop stop-color="#FEE162" offset="83.43%"/><stop stop-color="#FFE569" offset="100%"/></linearGradient><linearGradient x1="49.89%" y1=".051%" x2="49.89%" y2="99.809%" id="f"><stop stop-color="#EDB311" offset="8.244%"/><stop stop-color="#F3C42F" offset="30.54%"/><stop stop-color="#FAD64E" offset="59.24%"/><stop stop-color="#FEE162" offset="83.43%"/><stop stop-color="#FFE569" offset="100%"/></linearGradient><linearGradient x1="50.035%" y1="-.24%" x2="50.035%" y2="99.957%" id="g"><stop stop-color="#EDB311" offset="8.244%"/><stop stop-color="#F3C42F" offset="30.54%"/><stop stop-color="#FAD64E" offset="59.24%"/><stop stop-color="#FEE162" offset="83.43%"/><stop stop-color="#FFE569" offset="100%"/></linearGradient><linearGradient x1="49.973%" y1=".053%" x2="49.973%" y2="99.946%" id="h"><stop stop-color="#EDB311" offset="8.244%"/><stop stop-color="#F3C42F" offset="30.54%"/><stop stop-color="#FAD64E" offset="59.24%"/><stop stop-color="#FEE162" offset="83.43%"/><stop stop-color="#FFE569" offset="100%"/></linearGradient><linearGradient x1="50.01%" y1=".05%" x2="50.01%" y2="99.981%" id="i"><stop stop-color="#EDB311" offset="8.244%"/><stop stop-color="#F3C42F" offset="30.54%"/><stop stop-color="#FAD64E" offset="59.24%"/><stop stop-color="#FEE162" offset="83.43%"/><stop stop-color="#FFE569" offset="100%"/></linearGradient><linearGradient x1="49.939%" y1=".132%" x2="49.939%" y2="99.896%" id="j"><stop stop-color="#EDB311" offset="8.244%"/><stop stop-color="#F3C42F" offset="30.54%"/><stop stop-color="#FAD64E" offset="59.24%"/><stop stop-color="#FEE162" offset="83.43%"/><stop stop-color="#FFE569" offset="100%"/></linearGradient><linearGradient x1="49.956%" y1="-.039%" x2="49.956%" y2="99.91%" id="k"><stop stop-color="#EDB311" offset="8.244%"/><stop stop-color="#F3C42F" offset="30.54%"/><stop stop-color="#FAD64E" offset="59.24%"/><stop stop-color="#FEE162" offset="83.43%"/><stop stop-color="#FFE569" offset="100%"/></linearGradient></defs><g fill="none" fill-rule="evenodd"><path d="M72.097 50.41a1.53 1.53 0 0 1-.521.679c-.25.181-.52.272-.793.272H67.32c-.272 0-.476-.091-.589-.272-.113-.182-.113-.408-.022-.68l4.234-11.532a1.53 1.53 0 0 1 .52-.68c.25-.18.499-.271.793-.271h3.465c.271 0 .475.09.588.272.114.18.136.407.023.68l-1.155 3.126h-1.2l1.11-3.013h-2.99l-4.143 11.327h2.989l1.2-3.307h1.2l-1.245 3.398zm7.155.95h-1.177l.634-2.99h-2.672l-1.563 2.99H73.32l.023-.045 7.314-13.435h1.177l-2.58 13.48zm-.34-4.032l1.495-7.273-3.85 7.273h2.355zm7.541 3.082a1.53 1.53 0 0 1-.521.679c-.25.181-.498.272-.77.272h-3.374c-.272 0-.475-.091-.589-.272-.113-.182-.113-.408-.022-.68l1.245-3.398h1.2l-1.2 3.307h2.899l1.177-3.194-2.06-4.486a1.231 1.231 0 0 1 0-1.02l.996-2.718a1.53 1.53 0 0 1 .52-.68c.25-.181.499-.272.793-.272h3.374c.272 0 .475.091.589.272.113.182.113.408 0 .68l-1.155 3.126h-1.2l1.11-3.013h-2.9l-1.04 2.832 2.083 4.486c.135.295.135.634 0 .997l-1.155 3.081zm3.011.95h-1.2l4.914-13.434h1.2zm7.767 0h-.815l.045-9.877-3.623 9.878h-1.132l4.914-13.435h.883l-.046 9.72 3.555-9.72h1.133zm8.174-.95a1.53 1.53 0 0 1-.52.679c-.25.181-.499.272-.793.272h-3.759c-.272 0-.475-.091-.589-.272-.113-.182-.113-.408-.022-.68l4.234-11.532a1.53 1.53 0 0 1 .52-.68c.25-.18.499-.271.793-.271h3.76c.27 0 .475.09.588.272.113.18.113.407.023.68l-4.235 11.531zm-1.155-.092l4.144-11.327h-3.283l-4.144 11.327h3.283z" fill="#FA0000"/><path fill="#FFF" d="M.159 46.58h44.81l1.427-4.1H1.585zm49.928-4.1l-1.426 4.1h4.664l1.45-4.1zm11.186 0l-1.426 4.1h4.664l1.45-4.1zM90.959 3.081l-2.31 6.616h10.054l2.423-6.616z"/><path fill="url(#a)" d="M87.472 12.393l-8.333 23.856h10.167l8.333-23.856z" transform="translate(.226)"/><path d="M111.542 18.238h4.777l2.038-5.845h-4.777c1.336-3.806 2.4-6.888 2.4-6.888h-10.1l-2.4 6.888h-3.532l-2.06 5.845h3.555l-3.714 10.58c-2.219 6.366 1.676 7.431 5.23 7.431h7.066l2.377-6.82h-2.92c-1.88 0-1.382-1.313-.93-2.605.182-.52 1.495-4.327 2.99-8.586z" fill="url(#b)" transform="translate(.226)"/><path d="M77.327 19.099s7.337-2.288 7.337-8.7c0-3.693-2.49-5.279-5.525-5.958L80.656.068h-6.952l-1.336 3.851h-4.302L69.402.068h-6.951l-1.336 3.851h-3.963L45.808 36.25l4.823-.068-1.359 3.852h6.838l1.314-3.897h4.483l-1.494 3.897h6.838l1.676-4.803c6.362 0 12.16-6.82 12.16-11.306.022-4.463-3.76-4.825-3.76-4.825zm-6.974 6.411c-.973 2.764-3.69 2.787-5.82 2.787H59.62l1.834-5.573h4.688c1.811 0 5.185 0 4.211 2.786zm-1.766-8.813H63.56l1.812-5.165h4.506c1.268 0 3.192.022 3.192 1.699 0 1.7-1.653 3.466-4.483 3.466z" fill="url(#c)" transform="translate(.226)"/><path d="M42.456 12.03c-5.864 0-10.325 4.282-10.325 4.282-.068-1.518-1.698-4.282-6.34-4.282-4.891 0-9.669 4.282-9.669 4.282l1.336-3.92H8.672L.25 36.25h9.827l4.348-12.415c.792-2.288 2.672-4.509 5.095-4.509 2.423 0 2.332 2.311 1.653 4.237-.68 1.926-4.438 12.687-4.438 12.687h9.736l4.506-12.868c.544-1.518 2.242-4.1 5.186-4.1 2.966 0 2.196 2.831 1.743 4.1A7582.993 7582.993 0 0 0 33.4 36.249h9.737s4.098-11.713 5.706-16.29c1.63-4.576-.52-7.929-6.386-7.929z" fill="#FFBA2A"/><path d="M42.23.023c-5.865 0-10.325 4.282-10.325 4.282-.068-1.518-1.699-4.282-6.34-4.282-4.892 0-9.67 4.282-9.67 4.282l1.337-3.92H8.446L.023 24.242H9.85l4.347-12.416c.793-2.288 2.672-4.508 5.095-4.508 2.423 0 2.332 2.31 1.653 4.236-.68 1.926-4.438 12.688-4.438 12.688h9.737l4.506-12.869c.543-1.518 2.242-4.1 5.185-4.1 2.966 0 2.197 2.831 1.744 4.1a7582.993 7582.993 0 0 0-4.506 12.869h9.736s4.099-11.713 5.706-16.29c1.63-4.576-.52-7.93-6.385-7.93z" fill="url(#d)" transform="translate(.226 12.008)"/><path d="M42.456 12.03c-5.864 0-10.325 4.282-10.325 4.282-.068-1.518-1.698-4.282-6.34-4.282-4.891 0-9.669 4.282-9.669 4.282l1.336-3.92H8.672L.25 36.25h9.827l4.348-12.415c.792-2.288 2.672-4.509 5.095-4.509 2.423 0 2.332 2.311 1.653 4.237-.68 1.926-4.438 12.687-4.438 12.687h9.736l4.506-12.868c.544-1.518 2.242-4.1 5.186-4.1 2.966 0 2.196 2.831 1.743 4.1A7582.993 7582.993 0 0 0 33.4 36.249h9.737s4.098-11.713 5.706-16.29c1.63-4.576-.52-7.929-6.386-7.929z" fill="#FFBA2A"/><path d="M42.23.023c-5.865 0-10.325 4.282-10.325 4.282-.068-1.518-1.699-4.282-6.34-4.282-4.892 0-9.67 4.282-9.67 4.282l1.337-3.92H8.446L.023 24.242H9.85l4.347-12.416c.793-2.288 2.672-4.508 5.095-4.508 2.423 0 2.332 2.31 1.653 4.236-.68 1.926-4.438 12.688-4.438 12.688h9.737l4.506-12.869c.543-1.518 2.242-4.1 5.185-4.1 2.966 0 2.197 2.831 1.744 4.1a7582.993 7582.993 0 0 0-4.506 12.869h9.736s4.099-11.713 5.706-16.29c1.63-4.576-.52-7.93-6.385-7.93z" fill="url(#d)" transform="translate(.226 12.008)"/><g fill="#FFBA2A"><path d="M79.365 36.25h10.167l5.004-14.297a316.223 316.223 0 0 0-9.895-.793l-5.276 15.09z"/><path d="M79.365 36.25h10.167l5.004-14.297a316.223 316.223 0 0 0-9.895-.793l-5.276 15.09zm30.343-6.82c-1.88 0-1.382-1.314-.929-2.606.09-.271.498-1.404 1.064-3.035a314.99 314.99 0 0 0-9.668-1.247l-2.197 6.276c-2.219 6.366 1.676 7.431 5.23 7.431h7.066l2.377-6.82h-2.943z"/><path d="M109.708 29.43c-1.88 0-1.382-1.314-.929-2.606.09-.271.498-1.404 1.064-3.035a314.99 314.99 0 0 0-9.668-1.247l-2.197 6.276c-2.219 6.366 1.676 7.431 5.23 7.431h7.066l2.377-6.82h-2.943zM80.52 20.934c-10.484-.544-20.266-.499-29.074-.159L46.034 36.25l4.823-.068-1.358 3.852h6.838l1.313-3.897h4.484l-1.495 3.897h6.838l1.676-4.803c6.363 0 12.16-6.82 12.16-11.306.022-1.314-.317-2.288-.793-2.99zm-9.94 4.576c-.974 2.764-3.691 2.787-5.82 2.787h-4.913l1.834-5.573h4.687c1.811 0 5.185 0 4.212 2.786z"/><path d="M80.52 20.934c-10.484-.544-20.266-.499-29.074-.159L46.034 36.25l4.823-.068-1.358 3.852h6.838l1.313-3.897h4.484l-1.495 3.897h6.838l1.676-4.803c6.363 0 12.16-6.82 12.16-11.306.022-1.314-.317-2.288-.793-2.99zm-9.94 4.576c-.974 2.764-3.691 2.787-5.82 2.787h-4.913l1.834-5.573h4.687c1.811 0 5.185 0 4.212 2.786zM3.668 26.62L.272 36.25h9.827l4.098-11.714C7.495 25.67 3.781 26.598 3.781 26.598l-.113.023z"/><path d="M3.668 26.62L.272 36.25h9.827l4.098-11.714C7.495 25.67 3.781 26.598 3.781 26.598l-.113.023zm17.549-3.171c-.023.045-.023.068-.045.113-.68 1.926-4.438 12.687-4.438 12.687h9.736l4.506-12.868c.136-.363.317-.77.566-1.201-1.222.136-2.423.25-3.577.385-2.4.295-4.665.59-6.748.884z"/><path d="M21.217 23.449c-.023.045-.023.068-.045.113-.68 1.926-4.438 12.687-4.438 12.687h9.736l4.506-12.868c.136-.363.317-.77.566-1.201-1.222.136-2.423.25-3.577.385-2.4.295-4.665.59-6.748.884zm17.141-1.881c-.045.68-.25 1.36-.43 1.835-.453 1.27-4.506 12.869-4.506 12.869h9.736s3.6-10.286 5.367-15.36c-3.555.158-6.952.384-10.167.656z"/><path d="M38.358 21.568c-.045.68-.25 1.36-.43 1.835-.453 1.27-4.506 12.869-4.506 12.869h9.736s3.6-10.286 5.367-15.36c-3.555.158-6.952.384-10.167.656z"/></g><path d="M88.876 35.343h-8.243l4.914-14.024c-.317-.023-.634-.023-.951-.045l-5.23 14.975h10.166l5.004-14.34-.928-.069-4.732 13.503z" fill="#FFA61D"/><path d="M41.732 12.393l-3.102 8.88c.317.023.634.023.95.046l2.809-8.02h8.242l-2.99 8.541c.318.023.635.045.93.068l3.328-9.515H41.732z" fill="url(#e)" transform="translate(45.966)"/><path d="M70.263 5.505h-10.1l-2.422 6.888h-3.533l-2.06 5.845h3.555l-1.472 4.237c.317.045.611.067.928.113l1.404-4.033a.94.94 0 0 0-.113-.816c-.158-.249-.453-.385-.747-.385h-2.264l1.426-4.032h2.876c.385 0 .724-.25.86-.612l2.197-6.276h8.197l-1.993 5.687a.94.94 0 0 0 .113.815c.159.25.453.386.747.386h3.488l-1.404 4.032h-4.121a.927.927 0 0 0-.86.612l-1.11 3.194-.929 2.674c.295.068.612.113.906.181.543-1.563 1.245-3.58 2.015-5.732h4.778l2.038-5.845h-4.778c1.29-3.851 2.378-6.933 2.378-6.933z" fill="url(#f)" transform="translate(45.966)"/><path d="M107.919 26.53l-.023.045c-.34.974-.725 2.085-.113 2.945.385.522 1.019.793 1.925.793h1.652l-1.766 5.03h-6.408c-2.31 0-3.804-.476-4.483-1.45-.702-.974-.657-2.583.113-4.78l2.287-6.548c-.294-.045-.611-.068-.928-.113l-2.22 6.366c-2.218 6.366 1.676 7.431 5.231 7.431h7.065l2.378-6.82h-2.921c-1.88 0-1.382-1.313-.929-2.605.09-.271.476-1.336.996-2.854a10.671 10.671 0 0 0-.905-.181l-.951 2.74z" fill="#FFA61D"/><path d="M17.82 17.604h5.027c3.374 0 5.39-2.22 5.39-4.35 0-2.606-2.876-2.606-4.1-2.606h-4.505a.927.927 0 0 0-.86.612l-1.812 5.165a.94.94 0 0 0 .113.816.955.955 0 0 0 .747.363zm1.812-6.072h4.506c1.268 0 3.193.022 3.193 1.699 0 1.7-1.676 3.444-4.484 3.444H17.82l1.812-5.143z" fill="url(#g)" transform="translate(45.966)"/><path d="M59.847 29.18h4.913c2.197 0 5.503 0 6.68-3.398.43-1.268.136-2.107-.204-2.583-.996-1.404-3.419-1.404-4.868-1.404h-4.687c-.385 0-.747.25-.86.612l-1.835 5.573a.879.879 0 0 0 .136.815c.159.25.43.386.725.386zm1.834-6.456h4.687c1.811 0 5.185.022 4.234 2.786-.973 2.764-3.69 2.787-5.82 2.787H59.87l1.812-5.573z" fill="#FFA61D"/><path d="M31.588 19.099s7.336-2.288 7.336-8.7c0-3.693-2.49-5.279-5.525-5.958L34.916.068h-6.951l-1.336 3.851h-4.303L23.662.068h-6.951l-1.336 3.851h-3.963l-5.91 16.856c.317 0 .634 0 .974-.022l5.57-15.95h3.306c.385 0 .725-.25.86-.612l1.133-3.24h5.027l-.929 2.651a.94.94 0 0 0 .114.816c.18.25.452.385.747.385h4.302c.385 0 .725-.25.86-.612L28.6.951h5.027l-1.11 3.172a.868.868 0 0 0 .068.748.98.98 0 0 0 .589.453c3.283.748 4.823 2.356 4.823 5.075 0 5.641-6.431 7.748-6.703 7.839a.908.908 0 0 0-.634.951c.046.43.385.77.815.816.068 0 1.178.136 2.016 1.065.385.023.77.023 1.154.045-1.064-1.812-3.056-2.016-3.056-2.016z" fill="url(#h)" transform="translate(45.966)"/><path d="M80.43 23.924c0 1.949-1.36 4.577-3.442 6.684-2.333 2.356-5.186 3.715-7.835 3.715a.927.927 0 0 0-.86.612l-1.472 4.191h-4.869l1.02-2.673a.92.92 0 0 0-.091-.838c-.159-.25-.453-.385-.747-.385H57.65a.927.927 0 0 0-.86.611l-1.11 3.285h-4.89l.928-2.628c.09-.271.045-.589-.114-.838-.18-.226-.452-.385-.747-.385h-.022l-3.51.068 5.095-14.545c-.34 0-.657 0-.974.023l-5.412 15.428 4.823-.068-1.358 3.852h6.838l1.313-3.897h4.484l-1.495 3.897h6.838l1.676-4.803c6.363 0 12.16-6.82 12.16-11.306 0-1.223-.295-2.152-.702-2.831-.385-.023-.77-.023-1.155-.046.543.59.974 1.495.974 2.877z" fill="#FFA61D"/><path d="M43.045.023c-6.702 0-11.14 4.282-11.14 4.282S31.315.023 25.836.023c-5.615 0-9.94 4.282-9.94 4.282l1.336-3.92H8.446l-5.027 14.25c.272-.067.566-.135.838-.203L8.967 1.11h7.268l-.996 2.968a.71.71 0 0 0 .294.838c.114.068.25.114.385.114a.798.798 0 0 0 .521-.204c.045-.046 4.19-4.078 9.42-4.078 4.755 0 5.321 3.511 5.344 3.67a.752.752 0 0 0 .475.589.804.804 0 0 0 .227.045.702.702 0 0 0 .498-.204C32.448 4.803 36.705.77 43.045.77c2.174 0 3.691.59 4.529 1.722 1.45 2.016.407 5.234.385 5.256l-.453 1.269c.272-.023.52-.045.792-.045l.34-.975c0-.022 2.695-7.974-5.593-7.974z" fill="url(#i)" transform="translate(.226 12.008)"/><path d="M42.66 35.524h-8.22l4.484-13.027c.045-.09.136-.408.204-.838l-.747.068c-.068.317-.136.521-.136.521l-4.823 14.001h9.736l5.344-15.315c-.249.023-.52.045-.792.045l-5.05 14.545z" fill="#FFA61D"/><path d="M38.517 7.635c-.499-.725-1.36-1.087-2.56-1.087-3.6 0-5.479 3.67-5.547 3.828-.022.023-.022.046-.045.091v.023c.294-.023.589-.068.86-.091.521-.838 2.129-3.127 4.733-3.127 2.355 0 2.355 1.61 2.196 2.47l.747-.068c.091-.589.068-1.36-.384-2.039z" fill="url(#j)" transform="translate(.226 12.008)"/><path d="M25.972 35.524h-8.22l4.099-11.713v-.022c.023-.046.045-.159.09-.295-.271.023-.52.068-.792.09L16.756 36.25h9.737l4.778-13.548s.068-.113.18-.317c-.294.023-.565.068-.86.09l-4.619 13.05zm-16.394 0H1.291l3.215-9.085c-.272.068-.566.136-.838.204L.272 36.25h9.827l4.076-11.645-.815.136-3.782 10.784z" fill="#FFA61D"/><path d="M21.42 7.59c-.316-.453-.95-.975-2.128-.975-3.442 0-5.66 4.736-5.751 4.917 0 .022-.023.045-.023.068l-.385 1.133.815-.136.272-.748s2.06-4.509 5.095-4.509c3.011 0 1.653 4.237 1.653 4.237v.023c.272-.046.52-.068.792-.09.182-.794.544-2.697-.34-3.92z" fill="url(#k)" transform="translate(.226 12.008)"/></g></svg>