<?xml version="1.0" encoding="utf-8"?>
<!-- Generator: Adobe Illustrator 21.1.0, SVG Export Plug-In . SVG Version: 6.00 Build 0)  -->
<svg version="1.1" id="Layer_1" xmlns="http://www.w3.org/2000/svg" xmlns:xlink="http://www.w3.org/1999/xlink" x="0px" y="0px"
	 viewBox="0 0 441 109" style="enable-background:new 0 0 441 109;" xml:space="preserve">
<style type="text/css">
	.st0{fill:url(#SVGID_1_);}
	.st1{fill:url(#SVGID_2_);}
	.st2{fill:url(#SVGID_3_);}
	.st3{fill:url(#SVGID_4_);}
	.st4{fill:url(#SVGID_5_);}
	.st5{fill:url(#SVGID_6_);}
	.st6{fill:url(#SVGID_7_);}
	.st7{fill:url(#SVGID_8_);}
	.st8{fill:url(#SVGID_9_);}
	.st9{fill:url(#SVGID_10_);}
	.st10{fill:url(#SVGID_11_);}
	.st11{fill:url(#SVGID_12_);}
</style>
<g>
	<title>Asset 1</title>
	<g id="Layer_2">
		<g id="Layer_1-2">
			<linearGradient id="SVGID_1_" gradientUnits="userSpaceOnUse" x1="-8.4689" y1="69.6951" x2="431.5311" y2="-36.3049">
				<stop  offset="0" style="stop-color:#21E418"/>
				<stop  offset="0.3" style="stop-color:#31B6E9"/>
				<stop  offset="0.9757" style="stop-color:#21E418"/>
			</linearGradient>
			<path class="st0" d="M54.5,0C24.4,0,0,24.4,0,54.6c0,5.4,0.8,10.7,2.4,15.8c1-1.4,2-2.8,2.9-4.3c3.8-5.6,7.5-11.2,11.2-16.9
				l2.7-4.3c0.9-1.4,1.8-2.9,2.6-4.3c1.8-2.9,3.5-5.8,5.1-8.7c0.8-1.5,1.6-2.9,2.5-4.4s1.6-2.9,2.4-4.4s1.6-3,2.3-4.4l2.2-4.5
				l0.2-0.3c1.2-2.4,4.1-3.4,6.6-2.3c1.8,1,2.9,2.9,2.8,5l0,0c0,2.6-0.5,5.3-0.7,7.9s-0.3,5.3-0.5,8c-0.2,5.3-0.3,10.7-0.3,16
				s0.3,10.6,0.8,15.7c0.3,2.5,0.7,5,1.2,7.5c0.4,2.2,1.1,4.4,2.1,6.4c0.3,0.6,0.7,1.2,1.2,1.7c0.3,0.2,0.1,0.1,0.3,0.1s0.1,0,0.2,0
				l0.2-0.1h0.1l0,0l0.3-0.1l0,0c0.1-0.1,0.3-0.2,0.4-0.3c0.8-0.6,1.5-1.3,2.2-2.1c1.6-1.9,3.1-3.8,4.4-5.9c1.4-2.1,2.7-4.4,4-6.7
				c2.6-4.6,5-9.3,7.3-14.1c1.1-2.4,2.3-4.8,3.4-7.3c1.1-2.4,2.2-4.9,3.2-7.3c1-2.5,3.9-3.7,6.4-2.7c1.6,0.6,2.7,2,3,3.7l0,0
				c0,0.6,0.1,1.4,0.2,2.2l0.3,2.3c0.2,1.5,0.4,3,0.7,4.5c0.5,3,1.1,6,1.9,8.9c0.8,2.9,1.8,5.8,3,8.6c1.2,2.8,2.7,5.4,4.6,7.8l0,0
				c0.4,0.6,0.3,1.4-0.2,1.8c-0.5,0.4-1.2,0.4-1.6,0c-2.5-2.2-4.7-4.7-6.6-7.4c-1.9-2.7-3.5-5.6-5-8.5c-1-2-1.8-4-2.7-6
				c-0.6,1.2-1.1,2.4-1.7,3.5c-2.4,4.9-4.8,9.8-7.6,14.7C69,72,67.6,74.4,66,76.8c-1.6,2.5-3.4,4.9-5.3,7.1
				c-1.1,1.3-2.4,2.4-3.7,3.5c-0.4,0.3-0.8,0.6-1.3,0.8l-0.9,0.5l-0.5,0.2h-0.1L53.9,89L53.7,89l-0.4,0.1c-0.3,0.1-0.5,0.2-0.8,0.2
				c-0.6,0.1-1.2,0.2-1.8,0.3c-1.3,0.1-2.7-0.1-3.9-0.5c-1.2-0.4-2.3-1.1-3.3-1.9c-1.5-1.3-2.8-2.9-3.7-4.7c-1.4-2.8-2.4-5.8-3-8.9
				c-0.6-2.8-1-5.7-1.3-8.5c-0.6-5.6-0.8-11.1-0.9-16.7c0-2.6,0-5.3,0-7.9c-1,1.9-2,3.8-3,5.6c-0.8,1.5-1.6,3-2.5,4.5l-2.5,4.5
				c-3.4,6-6.9,11.9-10.6,17.8c-2.3,3.8-4.7,7.6-7.1,11.3c16.5,25.2,50.3,32.2,75.5,15.7s32.2-50.3,15.7-75.5C90,9.3,72.9,0,54.5,0z
				"/>
			<linearGradient id="SVGID_2_" gradientUnits="userSpaceOnUse" x1="-3.7293" y1="89.3689" x2="436.2707" y2="-16.6311">
				<stop  offset="0" style="stop-color:#21E418"/>
				<stop  offset="0.3" style="stop-color:#31B6E9"/>
				<stop  offset="0.9757" style="stop-color:#21E418"/>
			</linearGradient>
			<path class="st1" d="M156.2,74.2V38h-0.9l-11.6,36.3h-2.9L129.2,38h-0.9v36.2h-4.8V34.2h8.5L142.3,66l10.1-31.8h8.6v40.1H156.2z"
				/>
			<linearGradient id="SVGID_3_" gradientUnits="userSpaceOnUse" x1="-2.1758" y1="95.8173" x2="437.8242" y2="-10.1827">
				<stop  offset="0" style="stop-color:#21E418"/>
				<stop  offset="0.3" style="stop-color:#31B6E9"/>
				<stop  offset="0.9757" style="stop-color:#21E418"/>
			</linearGradient>
			<path class="st2" d="M168,39.4v-5.2h5.2v5.2L168,39.4z M168.1,74.2V43.3h5.1v30.9L168.1,74.2z"/>
			<linearGradient id="SVGID_4_" gradientUnits="userSpaceOnUse" x1="2.349951e-02" y1="104.9466" x2="440.0235" y2="-1.0534">
				<stop  offset="0" style="stop-color:#21E418"/>
				<stop  offset="0.3" style="stop-color:#31B6E9"/>
				<stop  offset="0.9757" style="stop-color:#21E418"/>
			</linearGradient>
			<path class="st3" d="M204.1,64.1c0,6-2.3,10.6-12.3,10.6c-12.6,0-13.3-7.2-13.3-16s0.7-16,13.3-16c10,0,12.3,4.6,12.3,10.6h-4.8
				c0-4.9-1.7-7.3-7.5-7.3c-7.8,0-8.2,4.2-8.2,12.6s0.4,12.6,8.2,12.6c5.8,0,7.5-2.4,7.5-7.3L204.1,64.1z"/>
			<linearGradient id="SVGID_5_" gradientUnits="userSpaceOnUse" x1="1.1368" y1="109.568" x2="441.1368" y2="3.568">
				<stop  offset="0" style="stop-color:#21E418"/>
				<stop  offset="0.3" style="stop-color:#31B6E9"/>
				<stop  offset="0.9757" style="stop-color:#21E418"/>
			</linearGradient>
			<path class="st4" d="M214,46.6c2.4-1.5,5.5-3.5,8.4-3.6c0.6-0.1,1.2-0.1,1.8-0.1c0.8,0,1.5,0,2.4,0.1l-0.4,3.7
				c-0.8-0.1-1.5-0.1-2.2-0.1c-0.6,0-1.2,0-1.9,0.1c-2.7,0.1-5.6,2.1-7.7,3.3v24.3h-5.1V43.3h4L214,46.6z"/>
			<linearGradient id="SVGID_6_" gradientUnits="userSpaceOnUse" x1="2.7698" y1="116.3464" x2="442.7698" y2="10.3464">
				<stop  offset="0" style="stop-color:#21E418"/>
				<stop  offset="0.3" style="stop-color:#31B6E9"/>
				<stop  offset="0.9757" style="stop-color:#21E418"/>
			</linearGradient>
			<path class="st5" d="M255.2,58.8c0,8.8-0.7,16-13.5,16s-13.5-7.2-13.5-16s0.7-16,13.5-16S255.2,50,255.2,58.8z M233.3,58.8
				c0,8.4,0.4,12.6,8.4,12.6s8.4-4.1,8.4-12.6s-0.4-12.6-8.4-12.6S233.3,50.3,233.3,58.8L233.3,58.8z"/>
			<linearGradient id="SVGID_7_" gradientUnits="userSpaceOnUse" x1="5.6581" y1="128.3356" x2="445.6581" y2="22.3356">
				<stop  offset="0" style="stop-color:#21E418"/>
				<stop  offset="0.3" style="stop-color:#31B6E9"/>
				<stop  offset="0.9757" style="stop-color:#21E418"/>
			</linearGradient>
			<path class="st6" d="M264.5,81.4c1.9,0.2,4.4,0.3,7.2,0.3c7.8,0,8.8-2.1,8.9-10.3c-2.3,1.3-5.5,2.8-8.8,2.9
				c-11.3,0.2-12-5.9-12-15.5s0.6-16,11.5-16c3.7,0,7.1,1.7,9.8,3.4l0.5-2.8h4v27.4c0,11.1-2.5,14.5-12.7,14.5c-3,0-6-0.3-8.9-0.7
				L264.5,81.4z M280.6,49c-2.2-1.4-5-2.8-7.7-2.8c-7.5,0-8,4.2-8,12.6c0,8.2,0.5,12.1,8,12.1c2.7,0,5.6-1.5,7.7-2.6V49z"/>
			<linearGradient id="SVGID_8_" gradientUnits="userSpaceOnUse" x1="6.4048" y1="131.4351" x2="446.4048" y2="25.4351">
				<stop  offset="0" style="stop-color:#21E418"/>
				<stop  offset="0.3" style="stop-color:#31B6E9"/>
				<stop  offset="0.9757" style="stop-color:#21E418"/>
			</linearGradient>
			<path class="st7" d="M313.3,74.2l-0.5-2.8c-2.5,1.6-5.8,3.4-9.4,3.4c-11.3,0.2-12-6.2-12-16s0.6-16,11.8-16c3.7,0,7,1.7,9.5,3.2
				l0.5-2.7h4v30.9L313.3,74.2z M312.3,48.8c-2.1-1.2-5-2.6-7.7-2.6c-7.5,0-8,4.2-8,12.6s0.5,12.6,8,12.6c2.7,0,5.5-1.5,7.7-2.8
				V48.8z"/>
			<linearGradient id="SVGID_9_" gradientUnits="userSpaceOnUse" x1="8.428" y1="139.8331" x2="448.428" y2="33.8331">
				<stop  offset="0" style="stop-color:#21E418"/>
				<stop  offset="0.3" style="stop-color:#31B6E9"/>
				<stop  offset="0.9757" style="stop-color:#21E418"/>
			</linearGradient>
			<path class="st8" d="M328,46c2.3-1.4,5.4-3.1,8.7-3.2c5.2-0.2,7.9,1.2,9.2,3.4c2.4-1.5,5.6-3.3,9.1-3.4
				c10.6-0.3,11.3,5.1,11.3,12.6v18.8h-5.1V55.7c0-6.4-0.4-9.5-7.3-9.5c-2.5,0-5.1,1.5-7.2,2.8c0.5,2.2,0.7,4.5,0.6,6.8v18.5h-4.4
				V55.7c0-6.4-0.4-9.5-7.3-9.5c-2.4,0-5,1.5-7,2.6v25.4h-5.1V43.3h4L328,46z"/>
			<linearGradient id="SVGID_10_" gradientUnits="userSpaceOnUse" x1="9.0494" y1="142.4126" x2="449.0494" y2="36.4126">
				<stop  offset="0" style="stop-color:#21E418"/>
				<stop  offset="0.3" style="stop-color:#31B6E9"/>
				<stop  offset="0.9757" style="stop-color:#21E418"/>
			</linearGradient>
			<path class="st9" d="M372.6,39.4v-5.2h5.2v5.2L372.6,39.4z M372.7,74.2V43.3h5.1v30.9L372.7,74.2z"/>
			<linearGradient id="SVGID_11_" gradientUnits="userSpaceOnUse" x1="11.2859" y1="151.696" x2="451.2859" y2="45.696">
				<stop  offset="0" style="stop-color:#21E418"/>
				<stop  offset="0.3" style="stop-color:#31B6E9"/>
				<stop  offset="0.9757" style="stop-color:#21E418"/>
			</linearGradient>
			<path class="st10" d="M388.6,46c2.5-1.4,5.8-3.1,9.4-3.2c11.3-0.3,12,5.1,12,12.6v18.8h-5.1V55.7c0-6.4-0.5-9.5-8-9.5
				c-2.7,0-5.6,1.5-7.7,2.7v25.4h-5.1V43.3h4L388.6,46z"/>
			<linearGradient id="SVGID_12_" gradientUnits="userSpaceOnUse" x1="14.1791" y1="163.7056" x2="454.1791" y2="57.7056">
				<stop  offset="0" style="stop-color:#21E418"/>
				<stop  offset="0.3" style="stop-color:#31B6E9"/>
				<stop  offset="0.9757" style="stop-color:#21E418"/>
			</linearGradient>
			<path class="st11" d="M419.9,81.4c1.9,0.2,4.4,0.3,7.2,0.3c7.8,0,8.8-2.1,8.9-10.3c-2.3,1.3-5.5,2.8-8.8,2.9
				c-11.3,0.2-12-5.9-12-15.5s0.6-16,11.5-16c3.7,0,7.1,1.7,9.8,3.4l0.5-2.8h4v27.4c0,11.1-2.5,14.5-12.7,14.5c-3,0-6-0.3-8.9-0.7
				L419.9,81.4z M435.9,49c-2.2-1.4-5-2.8-7.7-2.8c-7.5,0-8,4.2-8,12.6c0,8.2,0.5,12.1,8,12.1c2.7,0,5.6-1.5,7.7-2.6V49z"/>
		</g>
	</g>
</g>
</svg>
