<?xml version="1.0" encoding="utf-8"?>
<!-- Generator: Adobe Illustrator 22.0.0, SVG Export Plug-In . SVG Version: 6.00 Build 0)  -->
<svg version="1.1" id="Layer_1" xmlns="http://www.w3.org/2000/svg" xmlns:xlink="http://www.w3.org/1999/xlink" x="0px" y="0px"
	 width="275px" height="96px" viewBox="0 0 275 96" style="enable-background:new 0 0 275 96;" xml:space="preserve">
<style type="text/css">
	.st0{fill:#F8FF13;}
</style>
<path d="M17.3,95.9l10.9-39H0L16.3,0h184.5l-10.9,38.4H275l-16,57.6H17.3z"/>
<path class="st0" d="M79.6,20.8l-2.2,7.4H66.2l2.2-7.4H79.6L79.6,20.8z M61.4,45.7l2.6-9.3h12.2c6.4,0,10.2-2.9,12.2-9l1-3.5
	c2.2-7.7-1.3-12.8-9.6-12.8H27.2l-9.9,34.2h44.1V45.7z"/>
<path class="st0" d="M107.8,20.8h4.2v10.9h-10.2L107.8,20.8z M93.7,45.7l3.2-5.8h15v5.8h9.9V11.5h-19.2L82.5,45.7H93.7L93.7,45.7z"
	/>
<path class="st0" d="M142,20.8h10.9l-1.9,7.4h-11.2L142,20.8z M161.8,27.5l1-3.2c2.2-8-1.3-12.8-9.6-12.8h-18.5l-9.9,34.2h10.2
	l2.6-9.3h6.4l2.9,9.3h10.6l-3.2-9.9C158,34.5,160.5,32,161.8,27.5z"/>
<path class="st0" d="M171.4,45.7l9.9-34.2h-10.2l-9.9,34.2H171.4z"/>
<path class="st0" d="M107.4,50.5L95.6,64.3l-4.5-13.7H46.7l-9.6,34.2h44.1l5.4-18.9l3.5,10.6h6.4l9.6-11.2l-5.4,19.5H111l9.6-34.2
	H107.4z"/>
<path class="st0" d="M133.3,70.7l6.1-10.9h4.2v10.9H133.3z M134.3,50.5l-20.1,34.2h11.5l3.2-5.8h15v5.8h9.9V50.5H134.3z"/>
<path class="st0" d="M188.3,60.4l2.6-9.9h-31l-2.9,9.9h11.2l-6.7,24.3h10.2l6.7-24.3H188.3z"/>
<path class="st0" d="M201.8,60.4h15.7l2.9-9.9h-16.6c-6.4,0-10.2,2.9-12.2,9L188,71.9c-2.2,8,1.3,12.8,9.6,12.8h12.8l2.9-9.9h-15.7
	L201.8,60.4z"/>
<path class="st0" d="M246.5,50.5L243,63h-11.5l3.5-12.5h-10.2l-9.9,34.2h10.2l3.5-12.2h11.8l-3.5,12.2h10.2l9.6-34.2H246.5z"/>
</svg>
