<?xml version="1.0" encoding="utf-8"?>
<!-- Generator: Adobe Illustrator 22.0.0, SVG Export Plug-In . SVG Version: 6.00 Build 0)  -->
<svg version="1.1" id="Layer_1" xmlns="http://www.w3.org/2000/svg" xmlns:xlink="http://www.w3.org/1999/xlink" x="0px" y="0px"
	 width="720px" height="175px" viewBox="0 0 720 175" style="enable-background:new 0 0 720 175;" xml:space="preserve">
<style type="text/css">
	.st0{fill:#E03D22;}
</style>
<path class="st0" d="M145,56h47v119h-47V56z M350,66h80v41h-80V66z"/>
<path class="st0" d="M168.5,47c13,0,23.5-10.5,23.5-23.5S181.5,0,168.5,0S145,10.5,145,23.5S155.5,47,168.5,47z"/>
<path class="st0" d="M337,64c-0.2-35.4-29.7-64-65.9-64c-36.2,0-65.4,28.3-65.9,63.5L205,169h0v6h49V65.3h0c0-0.2,0-0.3,0-0.5
	c0-10,8.1-18.1,18-18.1s18,8.1,18,18.1c0,0.2,0,0.3,0,0.5h0V175h47V64z M0,175h47.4V71.9c0-16.7,6-25.2,18.2-25.2
	c5.1,0,9.4,1.7,13.1,5.2c3.6,3.5,5.4,7.7,5.4,12.7c0,4.9-1.7,9.2-5.2,12.8c-3.5,3.6-7.6,5.4-12.6,5.4c-3.5,0-6.9-1.3-10.3-3.7v51
	c4.9,0.5,8.6,0.8,11.3,0.8c17.5,0,32.6-6.5,45.5-19.4C125.6,98.6,132,83.2,132,65.3c0-18.3-6.4-33.8-19.4-46.4S83.8,0,65,0
	c-9.4,0-18.7,2.1-27.6,6.2c-8.9,4.1-16.4,9.6-22.2,16.6C5,35,0,50.7,0,70V175z M588,175h47.4V71.9c0-16.7,6-25.2,18.2-25.2
	c5.1,0,9.4,1.7,13.1,5.2c3.6,3.5,5.4,7.7,5.4,12.7c0,4.9-1.7,9.2-5.2,12.8c-3.5,3.6-7.6,5.4-12.6,5.4c-3.5,0-6.9-1.3-10.3-3.7v51
	c4.9,0.5,8.6,0.8,11.3,0.8c17.5,0,32.6-6.5,45.5-19.4C713.6,98.6,720,83.2,720,65.3c0-18.3-6.4-33.8-19.4-46.4S671.8,0,653,0
	c-9.4,0-18.7,2.1-27.6,6.2c-8.9,4.1-16.4,9.6-22.2,16.6C593,35,588,50.7,588,70V175z M443,6l0.2,105.5c0.5,35.2,29.7,63.5,65.9,63.5
	c36.2,0,65.7-28.6,65.9-63.9V4h-47v105.7h0c0,0.2,0,0.3,0,0.5c0,10-8.1,18.1-18,18.1c-9.9,0-18-8.1-18-18.1c0-0.2,0-0.3,0-0.5h0V4
	h-49L443,6L443,6z M443,0h49H443z M528,0h47H528z"/>
</svg>
