<svg width="150" height="22" viewBox="0 0 150 22" fill="none" xmlns="http://www.w3.org/2000/svg">
<g clip-path="url(#clip0)">
<path fill-rule="evenodd" clip-rule="evenodd" d="M4.76866 16.9986V21.9937H0V3.89564H7.62605C9.01088 3.89564 10.3825 4.13826 11.6153 4.77193C12.7091 5.3151 13.6277 6.14294 14.2694 7.16389C14.8939 8.17557 15.2179 9.33675 15.2053 10.5178C15.22 11.678 14.9171 12.821 14.3279 13.8288C13.7126 14.844 12.8006 15.6565 11.7089 16.1623C10.4381 16.7831 9.00503 16.9986 7.5968 16.9986H4.76866ZM114.974 10.9374H124.058V15.1219H114.974V17.8335H124.273V21.9952H110.206V3.89564H124.273V8.0573H114.974V10.9374ZM79.0916 3.05646L82.2517 6.65724L79.2027 10.024L77.4699 8.11725L75.7297 10.0325L72.6807 6.6658L75.8482 3.05646C75.6372 2.76623 75.5122 2.42497 75.4867 2.07003C75.4612 1.71509 75.5363 1.36014 75.7036 1.04403C75.871 0.727926 76.1242 0.462844 76.4356 0.277798C76.747 0.0927524 77.1046 -0.00512695 77.4691 -0.00512695C77.8337 -0.00512695 78.1913 0.0927524 78.5027 0.277798C78.8141 0.462844 79.0673 0.727926 79.2347 1.04403C79.402 1.36014 79.4771 1.71509 79.4516 2.07003C79.4261 2.42497 79.3011 2.76623 79.0901 3.05646H79.0916ZM69.9009 4.92179C70.1389 4.58102 70.2594 4.17502 70.2448 3.76283C70.2301 3.35064 70.0812 2.95375 69.8195 2.62988C69.5578 2.30601 69.1971 2.07206 68.7898 1.96204C68.3826 1.85203 67.9499 1.87169 67.5549 2.01816C67.1598 2.16463 66.8229 2.43028 66.5932 2.77648C66.3635 3.12267 66.253 3.53135 66.2777 3.94309C66.3023 4.35483 66.461 4.74815 66.7304 5.06585C66.9999 5.38355 67.3662 5.60906 67.7761 5.70959V21.998H72.5696V14.6081L77.4699 20.1612L82.3716 14.6081V21.998H87.1651V5.70959C87.5256 5.62116 87.8535 5.43576 88.1113 5.17447C88.3692 4.91319 88.5468 4.58651 88.6238 4.2316C88.7009 3.87669 88.6743 3.50781 88.5471 3.16691C88.42 2.82602 88.1973 2.5268 87.9045 2.3033C87.6117 2.0798 87.2605 1.94099 86.8909 1.90267C86.5212 1.86434 86.148 1.92804 85.8136 2.08651C85.4792 2.24499 85.1971 2.49188 84.9994 2.79909C84.8017 3.1063 84.6963 3.4615 84.6952 3.82428C84.6952 3.8671 84.6952 3.90849 84.6952 3.94988L84.7464 3.89422L84.6996 3.99126C84.7281 4.32335 84.8445 4.64252 85.0374 4.91751L77.4699 13.2551L76.0075 11.6481L72.0783 7.32231L69.9009 4.92179ZM145.233 15.9468C146.641 17.6979 148.027 19.4676 149.408 21.2388L149.993 21.998H144.237L144.091 21.8196C142.7 20.1241 141.355 18.3844 140.018 16.6461H138.157V21.998H133.413V3.89564H141.713C142.945 3.87438 144.164 4.15194 145.259 4.70343C146.278 5.22398 147.122 6.02091 147.688 6.99834C148.268 8.01658 148.564 9.16586 148.545 10.3308C148.564 11.5938 148.202 12.8345 147.505 13.8988C146.941 14.7616 146.158 15.4679 145.233 15.9496V15.9468ZM96.2974 21.998V3.89564H101.066V21.998H96.2974ZM50.6975 10.9374H59.783V15.1219H50.6975V17.8335H59.9965V21.9952H45.9289V3.89564H59.9965V8.0573H50.6975V10.9374V10.9374ZM34.8371 15.9468C36.2453 17.6979 37.6316 19.4676 39.012 21.2388L39.6043 21.998H33.8486L33.7023 21.8196C32.3131 20.1241 30.9678 18.3815 29.6312 16.6461H27.7609V21.998H23.0171V3.89564H31.3158C32.5486 3.8742 33.7676 4.15177 34.8634 4.70343C35.8827 5.22398 36.7262 6.02091 37.2923 6.99834C37.8725 8.01658 38.168 9.16586 38.1493 10.3308C38.1682 11.5938 37.8067 12.8345 37.1096 13.8988C36.5452 14.7616 35.7625 15.4679 34.8371 15.9496V15.9468ZM4.76866 8.0573V12.8384H8.15542C8.79738 12.8384 9.40425 12.6842 9.82686 12.1876C10.151 11.7859 10.3498 11.3018 10.3996 10.7928C10.4494 10.2839 10.348 9.77173 10.1076 9.31751C9.90086 8.94061 9.59173 8.62656 9.21414 8.40982C8.77564 8.16445 8.27606 8.04244 7.77082 8.0573H4.76866ZM138.157 8.0573V12.4816H141.713C142.257 12.4813 142.781 12.2769 143.175 11.9107C143.649 11.4968 143.807 10.9345 143.807 10.328C143.809 9.75143 143.642 9.18633 143.326 8.69954C142.987 8.16577 142.314 8.05445 141.717 8.05445L138.157 8.0573ZM27.7609 8.0573V12.4816H31.3158C31.8602 12.4813 32.3837 12.2769 32.7781 11.9107C33.2519 11.4968 33.4099 10.9345 33.4099 10.328C33.4122 9.75143 33.2452 9.18633 32.9288 8.69954C32.5895 8.16577 31.9168 8.05445 31.3202 8.05445L27.7609 8.0573Z" fill="url(#paint0_linear)"/>
</g>
<defs>
<linearGradient id="paint0_linear" x1="61.9034" y1="-13.0393" x2="84.0937" y2="40.5813" gradientUnits="userSpaceOnUse">
<stop stop-color="#9F6725"/>
<stop offset="0.24" stop-color="#D2AB5A"/>
<stop offset="0.47" stop-color="#9F6725"/>
<stop offset="0.72" stop-color="#D2AB5A"/>
<stop offset="1" stop-color="#9F6725"/>
</linearGradient>
<clipPath id="clip0">
<rect width="150" height="22" fill="white"/>
</clipPath>
</defs>
</svg>
