<svg width="380" height="217" viewBox="0 0 380 217" fill="none" xmlns="http://www.w3.org/2000/svg">
<path d="M105.636 142.596C101.868 138.988 96.9769 137.145 90.8831 137.145C84.7894 137.145 79.8984 139.068 76.0498 142.836C72.2813 146.604 70.3569 151.333 70.3569 157.025C70.3569 163.037 72.2813 167.846 76.0498 171.534C79.8984 175.141 84.7894 176.985 90.803 176.985C96.7363 176.985 101.627 175.141 105.476 171.374C107.4 169.53 108.924 167.365 109.886 164.961C110.848 162.556 111.329 159.91 111.329 157.025C111.409 151.012 109.485 146.203 105.636 142.596ZM99.4625 165.762C97.3778 168.007 94.5714 169.129 90.8831 169.129C87.6759 169.129 84.7092 168.007 82.4642 165.682C80.2191 163.277 79.257 160.391 79.257 156.944C79.257 153.417 80.3795 150.451 82.5444 148.207C84.7093 145.962 87.5156 144.84 90.8831 144.84C94.0904 144.84 96.8967 145.962 99.1417 148.207C101.387 150.451 102.429 153.337 102.429 156.944C102.509 160.552 101.467 163.438 99.4625 165.762Z" fill="#1D1D1B"/>
<path d="M137.147 154.379H126.243V145.561H138.831C139.472 145.561 139.954 145.08 139.954 144.439V138.828C139.954 138.187 139.472 137.706 138.831 137.706H118.946C118.305 137.706 117.824 138.187 117.824 138.828V175.141C117.824 175.782 118.305 176.263 118.946 176.263H125.12C125.762 176.263 126.243 175.782 126.243 175.141V162.155H137.147C137.789 162.155 138.27 161.674 138.27 161.033V155.421C138.19 154.94 137.708 154.379 137.147 154.379Z" fill="#1D1D1B"/>
<path d="M155.509 145.561V175.221C155.509 175.863 155.99 176.344 156.631 176.344H162.805C163.446 176.344 163.928 175.863 163.928 175.221V145.561H174.592C175.233 145.561 175.714 145.08 175.714 144.439V138.828C175.714 138.187 175.233 137.706 174.592 137.706H144.925C144.283 137.706 143.802 138.187 143.802 138.828V144.439C143.802 145.08 144.283 145.561 144.925 145.561H155.509Z" fill="#1D1D1B"/>
<path d="M190.468 160.391C192.392 161.273 193.835 162.235 194.877 163.117C195.84 163.999 196.401 164.88 196.401 165.842C196.401 166.884 196 167.686 195.278 168.327C194.557 168.888 193.595 169.209 192.392 169.209C190.788 169.209 189.265 168.808 187.661 168.087C186.539 167.526 185.576 166.884 184.775 166.083C184.294 165.602 183.572 165.682 183.171 166.163L179.723 170.331C179.403 170.732 179.403 171.213 179.643 171.614C180.605 173.137 182.129 174.339 184.213 175.301C186.699 176.424 189.345 176.985 192.151 176.985C196 176.985 199.047 175.943 201.532 173.778C203.617 172.175 204.98 169.85 205.221 167.285C205.461 164.64 205.06 162.475 204.098 160.632C203.296 159.109 202.334 157.986 201.212 157.185C200.009 156.303 198.726 155.582 197.363 154.78C195.92 154.059 194.637 153.417 193.434 152.936C192.231 152.375 191.189 151.734 190.307 150.932C189.505 150.131 189.024 149.169 189.024 148.046C189.024 147.084 189.425 146.283 190.147 145.722C190.949 145.161 191.991 144.92 193.194 144.92C194.477 144.92 195.519 145.08 196.401 145.481C196.962 145.722 197.523 146.122 198.165 146.603C198.646 147.004 199.368 146.924 199.768 146.363L202.976 141.874C203.296 141.393 203.216 140.752 202.815 140.431C200.25 138.186 196.802 137.064 192.392 137.064C188.623 137.064 185.657 138.106 183.412 140.271C181.167 142.435 180.044 145 180.044 148.046C180.044 149.409 180.204 150.692 180.605 151.894C181.086 153.097 181.648 154.139 182.209 154.86C182.85 155.662 183.652 156.463 184.695 157.185C185.737 157.906 186.619 158.548 187.421 158.948C188.303 159.509 189.345 159.91 190.468 160.391Z" fill="#1D1D1B"/>
<path d="M228.072 175.542L236.09 150.531L244.188 175.542C244.349 176.023 244.749 176.263 245.231 176.263H251.725C252.206 176.263 252.607 175.943 252.767 175.462L263.031 139.148C263.191 138.427 262.71 137.786 261.988 137.786H256.215C255.734 137.786 255.253 138.106 255.173 138.587L248.518 163.197L240.981 138.587C240.821 138.106 240.42 137.786 239.939 137.786H232.963C232.482 137.786 232.081 138.106 231.921 138.587L224.624 163.277L218.049 138.667C217.889 138.186 217.488 137.866 217.007 137.866H209.791C209.069 137.866 208.508 138.587 208.748 139.229L219.493 175.542C219.653 176.023 220.054 176.344 220.535 176.344H227.03C227.511 176.344 227.992 176.023 228.072 175.542Z" fill="#1D1D1B"/>
<path d="M270.488 176.344H276.662C277.303 176.344 277.784 175.863 277.784 175.221V138.908C277.784 138.267 277.303 137.786 276.662 137.786H270.488C269.846 137.786 269.365 138.267 269.365 138.908V175.221C269.365 175.782 269.846 176.344 270.488 176.344Z" fill="#1D1D1B"/>
<path d="M296.065 160.391C297.989 161.273 299.433 162.235 300.475 163.117C301.437 163.999 301.998 164.88 301.998 165.842C301.998 166.885 301.598 167.686 300.876 168.327C300.154 168.889 299.192 169.209 297.989 169.209C296.386 169.209 294.862 168.808 293.259 168.087C292.136 167.526 291.174 166.885 290.372 166.083C289.891 165.602 289.17 165.682 288.769 166.163L285.321 170.331C285 170.732 285 171.213 285.241 171.614C286.203 173.137 287.726 174.34 289.811 175.302C292.297 176.424 294.943 176.985 297.749 176.985C301.598 176.985 304.644 175.943 307.13 173.778L307.531 173.458C309.616 171.454 310.899 168.728 310.899 165.923C310.899 163.919 310.498 162.155 309.696 160.712C308.894 159.189 307.932 158.067 306.809 157.265C305.607 156.383 304.324 155.662 302.961 154.86C301.517 154.139 300.235 153.498 299.032 153.017C297.829 152.455 296.787 151.814 295.905 151.012C295.103 150.211 294.622 149.249 294.622 148.127C294.622 147.165 295.023 146.363 295.744 145.802C296.546 145.241 297.589 145 298.791 145C300.074 145 301.117 145.161 301.998 145.562C302.56 145.802 303.121 146.203 303.762 146.684C304.244 147.085 304.965 147.004 305.366 146.443L308.573 141.954C308.894 141.473 308.814 140.832 308.413 140.511C305.847 138.267 302.399 137.145 297.989 137.145C294.221 137.145 291.254 138.187 289.009 140.351C286.764 142.515 285.642 145.081 285.642 148.127C285.642 149.489 285.802 150.772 286.203 151.974C286.684 153.177 287.245 154.219 287.807 154.94C288.448 155.742 289.25 156.544 290.292 157.265C291.335 157.987 292.217 158.628 293.018 159.029C293.9 159.51 294.943 159.91 296.065 160.391Z" fill="#1D1D1B"/>
<path d="M325.652 160.391C327.576 161.273 329.019 162.235 330.062 163.117C331.024 163.999 331.585 164.88 331.585 165.842C331.585 166.885 331.184 167.686 330.462 168.327C329.741 168.889 328.779 169.209 327.576 169.209C325.972 169.209 324.449 168.808 322.845 168.087C321.723 167.526 320.761 166.885 319.959 166.083C319.478 165.602 318.756 165.682 318.355 166.163L314.907 170.331C314.587 170.732 314.587 171.213 314.827 171.614C315.789 173.137 317.313 174.34 319.398 175.302C321.883 176.424 324.529 176.985 327.335 176.985C331.184 176.985 334.231 175.943 336.717 173.778L337.117 173.458C339.202 171.454 340.485 168.728 340.485 165.923C340.485 163.919 340.084 162.155 339.282 160.712C338.48 159.189 337.518 158.067 336.396 157.265C335.193 156.383 333.91 155.662 332.547 154.86C331.104 154.139 329.821 153.498 328.618 153.017C327.416 152.455 326.373 151.814 325.491 151.012C324.689 150.211 324.208 149.249 324.208 148.127C324.208 147.165 324.609 146.363 325.331 145.802C326.133 145.241 327.175 145 328.378 145C329.661 145 330.703 145.161 331.585 145.562C332.146 145.802 332.707 146.203 333.349 146.684C333.83 147.085 334.552 147.004 334.953 146.443L338.16 141.954C338.48 141.473 338.4 140.832 337.999 140.511C335.434 138.267 331.986 137.145 327.576 137.145C323.807 137.145 320.841 138.187 318.596 140.351C316.351 142.515 315.228 145.081 315.228 148.127C315.228 149.489 315.388 150.772 315.789 151.974C316.27 153.177 316.832 154.219 317.393 154.94C318.034 155.742 318.836 156.544 319.879 157.265C320.921 157.987 321.803 158.628 322.605 159.029C323.567 159.51 324.529 159.91 325.652 160.391Z" fill="#1D1D1B"/>
<path d="M50.5525 160.391C52.4768 161.273 53.92 162.235 54.9624 163.117C55.9246 163.999 56.4858 164.88 56.4858 165.842C56.4858 166.884 56.0849 167.686 55.3633 168.327C54.6417 168.889 53.6795 169.209 52.4768 169.209C50.8732 169.209 49.3498 168.808 47.7461 168.087C46.6236 167.526 45.6615 166.884 44.8597 166.083C44.3786 165.602 43.6569 165.682 43.256 166.163L39.8083 170.331C39.4876 170.732 39.4876 171.213 39.7281 171.614C40.6903 173.137 42.2137 174.34 44.2984 175.301C46.784 176.424 49.4299 176.985 52.2363 176.985C56.0849 176.985 59.1318 175.943 61.6174 173.778L61.9381 173.458C64.0228 171.454 65.3057 168.728 65.3858 165.842C65.3858 163.838 64.9849 162.075 64.1831 160.552C63.3813 159.029 62.4192 157.906 61.2966 157.105C60.0939 156.223 58.8111 155.502 57.448 154.7C56.0047 153.978 54.7218 153.337 53.5191 152.856C52.3164 152.295 51.2741 151.654 50.3921 150.852C49.5903 150.051 49.1092 149.089 49.1092 147.966C49.1092 147.004 49.5101 146.203 50.2317 145.642C51.0336 145.08 52.0759 144.84 53.2786 144.84C54.5615 144.84 55.6038 145 56.4858 145.401C57.0471 145.642 57.6083 146.042 58.2498 146.523C58.7309 146.924 59.4525 146.844 59.8534 146.283L63.0606 141.794C63.3813 141.313 63.3012 140.672 62.9003 140.351C60.3345 138.106 56.8867 136.984 52.4768 136.984C48.7083 136.984 45.7416 138.026 43.4966 140.191C41.2515 142.355 40.129 144.92 40.129 147.966C40.129 149.329 40.2894 150.612 40.6903 151.814C41.1714 153.016 41.7326 154.059 42.2939 154.78C42.9353 155.582 43.7371 156.383 44.7795 157.105C45.8218 157.826 46.7038 158.468 47.5056 158.868C48.4678 159.51 49.4299 159.91 50.5525 160.391Z" fill="#1D1D1B"/>
<path d="M185.737 67.8846L164.409 89.2076L151.419 76.2214L164.409 63.2352L168.257 67.083C169.219 68.0449 170.502 68.6061 171.865 68.6061C173.228 68.6061 174.511 68.0449 175.473 67.083L181.006 61.5518C183.01 59.5478 183.01 56.3413 181.006 54.4174L168.097 41.5114C167.135 40.5494 165.852 39.9883 164.489 39.9883C163.126 39.9883 161.843 40.5494 160.881 41.5114L129.69 72.6943C127.686 74.6984 127.686 77.9048 129.69 79.8287L160.881 111.012C161.843 111.974 163.126 112.535 164.489 112.535C165.852 112.535 167.135 111.974 168.097 111.012L194.797 84.3178L198.485 80.6303L185.737 67.8846Z" fill="#FBBA00"/>
<path d="M250.522 79.8288L219.332 111.012C218.37 111.974 217.087 112.535 215.724 112.535C214.361 112.535 213.078 111.974 212.116 111.012L199.127 98.0255C197.122 96.0215 197.122 92.815 199.127 90.8911L204.659 85.3599C205.621 84.398 206.904 83.917 208.267 83.917C209.63 83.917 210.913 84.4782 211.875 85.3599L215.483 88.9672L215.724 89.2077L228.713 76.2215L215.724 63.2353L196.4 82.5543C196.32 82.6344 196.24 82.7146 196.16 82.7948C194.476 84.398 192.311 85.1996 190.066 85.1996C187.661 85.1996 185.416 84.2377 183.732 82.5543C182.048 80.8709 181.086 78.6264 181.086 76.2215C181.086 73.8968 181.888 71.8126 183.491 70.1292C183.572 70.049 183.652 69.9689 183.732 69.8887L183.812 69.8086L183.892 69.7284L212.196 41.4313C213.158 40.4694 214.441 39.9082 215.804 39.9082C217.167 39.9082 218.45 40.4694 219.412 41.4313L250.602 72.6142C252.527 74.6984 252.527 77.9049 250.522 79.8288Z" fill="#E30613"/>
</svg>
