<?xml version="1.0" encoding="utf-8"?>
<!-- Generator: Adobe Illustrator 24.2.1, SVG Export Plug-In . SVG Version: 6.00 Build 0)  -->
<svg version="1.1" id="Layer_1" xmlns="http://www.w3.org/2000/svg" xmlns:xlink="http://www.w3.org/1999/xlink" x="0px" y="0px"
	 viewBox="0 0 155 56" style="enable-background:new 0 0 155 56;" xml:space="preserve">
<style type="text/css">
	.st0{fill:url(#path28_1_);}
	.st1{fill:url(#path44_1_);}
	.st2{fill:url(#path60_1_);}
	.st3{fill-rule:evenodd;clip-rule:evenodd;fill:#4BBAEB;}
	.st4{fill-rule:evenodd;clip-rule:evenodd;fill:#60E0FD;}
</style>
<g id="Home">
	<g id="_x31_632-WinnigDays" transform="translate(-40.000000, -12.000000)">
		<g id="Menu" transform="translate(12.000000, 12.000000)">
			<g id="Logo" transform="translate(28.200243, 0.000000)">
				<g id="Group-19" transform="translate(0.213324, 0.420196)">
					
						<linearGradient id="path28_1_" gradientUnits="userSpaceOnUse" x1="-1648.3037" y1="-204.6921" x2="-1647.2864" y2="-204.711" gradientTransform="matrix(9.4273 0 0 -9.4272 15560.4521 -1924.1896)">
						<stop  offset="0" style="stop-color:#4AB9EB"/>
						<stop  offset="1" style="stop-color:#62E4FF"/>
					</linearGradient>
					<path id="path28" class="st0" d="M25.6,0.9c2.6,0,4.7,2.1,4.7,4.7s-2.1,4.7-4.7,4.7s-4.7-2.1-4.7-4.7S23,0.9,25.6,0.9"/>
					
						<linearGradient id="path44_1_" gradientUnits="userSpaceOnUse" x1="-1789.0952" y1="-41.7912" x2="-1788.5177" y2="-41.802" gradientTransform="matrix(33.8199 0 0 -44.8912 60537.6875 -1845.1688)">
						<stop  offset="0" style="stop-color:#4AB9EB"/>
						<stop  offset="1" style="stop-color:#62E4FF"/>
					</linearGradient>
					<path id="path44" class="st1" d="M52.3,11.2c1.8-4.7,6.3-2.5,1.7,9.3c-4.9,13.4-11.5,33.1-17.1,33
						c-5.1-0.3-10.2-22.1-14.3-22.1c-0.1,0-0.1,0-0.2,0l0,0c7.1-2.4,16.6,5.9,16.7,5.2l0,0c0.1,0,0.1,0,0.2,0
						C42.7,36.5,50.3,16.5,52.3,11.2"/>
					
						<linearGradient id="path60_1_" gradientUnits="userSpaceOnUse" x1="-1797.1019" y1="-63.9376" x2="-1796.085" y2="-63.9565" gradientTransform="matrix(39.4862 0 0 -29.7004 70962.75 -1870.8901)">
						<stop  offset="0" style="stop-color:#4AB9EB"/>
						<stop  offset="1" style="stop-color:#62E4FF"/>
					</linearGradient>
					<path id="path60" class="st2" d="M22.4,31.5c7.1-2.4,16.6,5.9,16.7,5.2c-5.6-6.4-10-23.1-13.6-23.2
						c-3.6-0.1-8.3,15.7-10.5,15.5c-2.3-0.2-5.1-8.1-7.5-8.6c-3.5-1.2-7.2,2.2-7.6,5.2C7.3,23.3,8.4,43,13.7,43.1
						c3,0,4.5-8.5,7.4-10.9C21.4,31.8,21.9,31.6,22.4,31.5"/>
				</g>
				<g id="Group-15" transform="translate(60.750460, 15.934364)">
					<path id="path62" class="st3" d="M4.3,15.1h4.2l2.1-5.6l2.1,5.6c0.2,0,3.9,0,4.3,0l4.4-14.3h-5.5l-1.5,4.7l-1.9-4.6h-4L6.8,5.4
						L5.3,0.9h-5.8L4.3,15.1"/>
					<path id="path64" class="st3" d="M37.9,15.2h4.4l0.1-14.4h-5.8v4.7l-3.2-4.7c-0.3,0-3.8,0-4.2,0v14.3H35l0.1-4.3L37.9,15.2"/>
					<path id="path66" class="st4" d="M42.1,23.2l0.9,3.7h-2.2L42.1,23.2z M33.5,32.2h5.7l0.7-2.3h4.3c0.2,0.3,0.7,2.1,0.7,2.3h5.7
						l-4.6-13.4h-7.8L33.5,32.2"/>
					<path id="path68" class="st4" d="M26.9,27v-3.3c1.1-0.2,2.4,0.3,2.4,1.7C29.4,26.9,27.8,27.4,26.9,27L26.9,27z M29.6,32.2
						c2.9-0.3,5-3,5.2-6.6c-0.1-3.9-2.4-7-6.6-7h-6.6v13.5H29.6"/>
					<path id="path70" class="st3" d="M89.6,15.2h3.8V7.8h-5.6c0,0.4,0,0.8,0,1.2c-0.1,1.9-3.3,0.5-2.2-1.7c1.2-2.6,5-1,5.5-0.4
						l2.7-4.2C89.1-1,80,1.1,80.3,8.4c0,1,0.4,2.4,0.8,3.4C83.3,15.3,85.8,15.3,89.6,15.2"/>
					<path id="path72" class="st4" d="M60.7,31.2c3.9,1.6,11.7,1.9,11.1-3.9c-0.4-1.6-0.8-1.9-2-2.7c-0.8-0.6-3.2-1.1-3.4-1.8
						c-0.1-0.6,0.3-0.8,0.9-0.8c1.4,0.1,2.3,0.8,2.9,1.8l1.1-4c-2.5-1.7-8.9-1.8-10,2.2c-0.2,0.7-0.2,1.4,0,2.3
						c0.9,2.5,3.1,2.2,4.3,3.4c0.2,0.3,0.4,0.6,0.1,0.9c-1.3,1.5-3.5-0.9-3.6-1.6L60.7,31.2"/>
					<polyline id="path74" class="st4" points="51.6,26.1 51.7,32.2 57.2,32.2 57.3,26.2 62,18.7 56.1,18.7 54.6,21.3 52.8,18.8 
						47,18.8 51.6,26.1 					"/>
					<polyline id="path76" class="st3" points="21.8,15.2 27.5,15.1 27.5,0.9 21.7,0.9 21.8,15.2 					"/>
					<path id="path78" class="st3" d="M74.8,15.2h4.4l0.1-14.4h-5.8v4.7l-3.2-4.7c-0.3,0-3.8,0-4.2,0v14.3H72l0.1-4.3L74.8,15.2"/>
					<polyline id="path80" class="st3" points="58.8,15.2 64.5,15.1 64.6,0.9 58.8,0.9 58.8,15.2 					"/>
					<path id="path82" class="st3" d="M52.6,15.2h4.4L57,0.8h-5.8v4.7l-3.2-4.7c-0.3,0-3.8,0-4.2,0v14.3h5.8l0.1-4.3L52.6,15.2"/>
				</g>
			</g>
		</g>
	</g>
</g>
</svg>
