<svg width="48" height="48" viewBox="0 0 48 48" fill="none" xmlns="http://www.w3.org/2000/svg">
<g opacity="0.32">
<path d="M16 34L24 42L32 34" stroke="black" stroke-width="1.4" stroke-linecap="round" stroke-linejoin="round"/>
<path d="M24.418 24.0234V42.0234" stroke="black" stroke-width="1.4" stroke-linecap="round" stroke-linejoin="round"/>
<path d="M42.1783 36.2033C43.9171 34.9806 45.221 33.2356 45.9009 31.2216C46.5807 29.2076 46.6011 27.0293 45.9591 25.003C45.3171 22.9766 44.0461 21.2075 42.3305 19.9524C40.6149 18.6974 38.544 18.0216 36.4183 18.0233H33.8983C33.2968 15.6791 32.1713 13.5018 30.6066 11.6555C29.0418 9.80913 27.0786 8.34182 24.8647 7.36401C22.6509 6.3862 20.244 5.92336 17.8254 6.01034C15.4067 6.09732 13.0393 6.73185 10.9014 7.86616C8.76351 9.00047 6.91077 10.605 5.4827 12.559C4.05462 14.5129 3.08843 16.7654 2.65684 19.1468C2.22526 21.5282 2.33954 23.9765 2.99108 26.3073C3.64262 28.6382 4.81444 30.7909 6.41832 32.6033" stroke="black" stroke-width="1.4" stroke-linecap="round" stroke-linejoin="round"/>
</g>
</svg>
