<svg width="167" height="30" xmlns="http://www.w3.org/2000/svg" fill="none">

 <g>
  <title>Layer 1</title>
  <path id="svg_1" fill="#FACA29" d="m48.418,0l-1.3745,0l0,29.5901l1.3745,0l0,-29.5901zm23.6592,0l-1.3745,0l0,29.5901l1.3745,0l0,-29.5901zm23.7222,0l-1.3448,0l0,29.5901l1.3448,0l0,-29.5901zm71.1316,0l-1.375,0l0,29.5901l1.375,0l0,-29.5901zm-23.634,0l-1.374,0l0,29.5901l1.374,0l0,-29.5901zm-23.793,0l-1.375,0l0,29.5901l1.375,0l0,-29.5901zm-118.62815,0l23.56605,0l0,29.5901l-23.56605,0l0,-29.5901z" clip-rule="evenodd" fill-rule="evenodd"/>
  <path id="svg_3" fill="black" d="m160.791,21.8563l0,-7.1928l-6.14,0l0,2.0174l3.392,0l0,4.4736c-0.264,0.497 -0.644,0.906 -1.17,1.228c-0.527,0.3215 -1.257,0.4674 -2.193,0.4674c-1.286,0 -2.281,-0.4382 -3.041,-1.3156c-0.731,-0.8769 -1.111,-2.1633 -1.111,-3.8593l0,-5.8766c0,-1.6381 0.351,-2.89536 1.052,-3.77226c0.702,-0.84771 1.638,-1.28641 2.837,-1.28641c1.199,0 2.076,0.32199 2.69,0.96443c0.585,0.64346 0.935,1.57922 0.965,2.83694l2.602,0l0.029,-0.088c-0.087,-1.84185 -0.643,-3.24549 -1.695,-4.26879c-1.083,-1.0233 -2.632,-1.52087 -4.62,-1.52087c-1.989,0 -3.597,0.61429 -4.796,1.87153c-1.199,1.25672 -1.812,3.04071 -1.812,5.32123l0,5.848c0,2.3097 0.643,4.0937 1.9,5.351c1.258,1.2572 2.953,1.871 5,1.871c1.579,0 2.895,-0.2923 3.888,-0.9358c1.024,-0.6429 1.755,-1.3448 2.223,-2.1341zm-23.59,-16.91489l-2.72,0l0,14.59029l-0.087,0.0292l-7.485,-14.61949l-2.749,0l0,19.70679l2.749,0l0,-14.64866l0.087,0l7.485,14.64866l2.72,0l0,-19.70679zm-25.678,2.71923l0,-2.71923l-9.264,0l0,2.71923l3.273,0l0,14.26886l-3.273,0l0,2.7187l3.273,0l2.719,0l3.272,0l0,-2.7187l-3.272,0l0,-14.26886l3.272,0zm-36.4247,-2.71923l0,19.70679l2.7187,0l0,-7.5726l-0.2339,-7.57312l0.0584,0l4.7371,15.14572l1.8127,0l4.7366,-15.1749l0.0876,0.02918l-0.2335,7.57312l0,7.5726l2.7193,0l0,-19.70679l-3.5383,0l-4.6199,16.08149l-0.0876,0l-4.6194,-16.08149l-3.5378,0zm-18.0252,12.57289l2.4848,-8.6256l0.0881,0l2.4561,8.6256l-5.029,0zm3.8593,-12.57289l-2.6317,0l-6.0814,19.70679l2.8067,0l1.4328,-4.9706l6.2862,0l1.4329,4.9706l2.7776,0l-6.0231,-19.70679zm-18.8437,16.89999c-0.4387,0.7899 -1.1697,1.5204 -2.193,2.1347c-1.0233,0.6429 -2.3103,0.9644 -3.889,0.9644c-2.0758,0 -3.7425,-0.6429 -4.9998,-1.9002c-1.2572,-1.228 -1.9001,-3.0407 -1.9001,-5.3509l0,-5.8475c0,-2.28106 0.6137,-4.06454 1.8126,-5.29209c1.1989,-1.25724 2.7776,-1.9007 4.7658,-1.9007c2.0175,0 3.567,0.52624 4.62,1.52036c1.0816,1.02329 1.6371,2.45612 1.7251,4.26873l-0.0297,0.0876l-2.602,0c-0.0584,-1.22757 -0.3803,-2.16333 -0.9941,-2.8068c-0.5851,-0.67264 -1.4912,-0.99412 -2.6901,-0.99412c-1.1989,0 -2.1346,0.43871 -2.8359,1.31611c-0.7019,0.84771 -1.0233,2.10491 -1.0233,3.77171l0,5.8767c0,1.6667 0.3511,2.9532 1.1108,3.8306c0.731,0.906 1.7548,1.3447 3.0407,1.3447c0.9358,0 1.6668,-0.1756 2.1935,-0.497c0.4966,-0.3215 0.9061,-0.731 1.14,-1.2276l0,-4.474l-3.3621,0l0,-1.9883l6.1106,0l0,7.1636z" clip-rule="evenodd" fill-rule="evenodd"/>
  <text font-weight="bold" xml:space="preserve" text-anchor="start" font-family="Noto Sans JP" font-size="24" stroke-width="0" id="svg_4" y="23.5" x="4.5" fill="#000000">C</text>
 </g>
</svg>