<svg width="172" height="55" xmlns="http://www.w3.org/2000/svg" fill="none">

 <g>
  <title>Layer 1</title>
  <path id="svg_1" fill="#FACA29" d="m50.418,13l-1.3745,0l0,29.5901l1.3745,0l0,-29.5901zm23.6592,0l-1.3745,0l0,29.5901l1.3745,0l0,-29.5901zm23.7222,0l-1.3448,0l0,29.5901l1.3448,0l0,-29.5901zm71.1316,0l-1.375,0l0,29.5901l1.375,0l0,-29.5901zm-23.634,0l-1.374,0l0,29.5901l1.374,0l0,-29.5901zm-23.793,0l-1.375,0l0,29.5901l1.375,0l0,-29.5901zm-118.62815,0l23.56605,0l0,29.5901l-23.56605,0l0,-29.5901z" clip-rule="evenodd" fill-rule="evenodd"/>
  <path id="svg_3" fill="white" d="m162.791,34.8566l0,-7.1928l-6.14,0l0,2.0174l3.392,0l0,4.4736c-0.264,0.497 -0.644,0.906 -1.17,1.228c-0.527,0.3215 -1.257,0.4674 -2.193,0.4674c-1.286,0 -2.281,-0.4382 -3.041,-1.3156c-0.731,-0.8769 -1.111,-2.1633 -1.111,-3.8593l0,-5.8766c0,-1.6381 0.351,-2.8954 1.053,-3.7723c0.701,-0.8477 1.637,-1.2864 2.836,-1.2864c1.199,0 2.076,0.322 2.69,0.9645c0.585,0.6434 0.935,1.5792 0.965,2.8369l2.602,0l0.029,-0.088c-0.087,-1.8418 -0.643,-3.2455 -1.695,-4.2688c-1.083,-1.0233 -2.632,-1.5209 -4.62,-1.5209c-1.989,0 -3.597,0.6143 -4.796,1.8716c-1.199,1.2567 -1.812,3.0407 -1.812,5.3212l0,5.848c0,2.3097 0.643,4.0937 1.9,5.351c1.258,1.2572 2.953,1.871 5,1.871c1.579,0 2.895,-0.2923 3.889,-0.9358c1.023,-0.6429 1.754,-1.3448 2.222,-2.1341zm-23.59,-16.9149l-2.72,0l0,14.5903l-0.087,0.0292l-7.485,-14.6195l-2.749,0l0,19.7068l2.749,0l0,-14.6487l0.087,0l7.485,14.6487l2.72,0l0,-19.7068zm-25.678,2.7192l0,-2.7192l-9.263,0l0,2.7192l3.272,0l0,14.2689l-3.272,0l0,2.7187l3.272,0l2.719,0l3.272,0l0,-2.7187l-3.272,0l0,-14.2689l3.272,0zm-36.4246,-2.7192l0,19.7068l2.7187,0l0,-7.5726l-0.2339,-7.5731l0.0583,0l4.7372,15.1457l1.8126,0l4.7367,-15.1749l0.0875,0.0292l-0.2334,7.5731l0,7.5726l2.7193,0l0,-19.7068l-3.5383,0l-4.62,16.0815l-0.0875,0l-4.6194,-16.0815l-3.5378,0zm-18.0252,12.5729l2.4848,-8.6256l0.088,0l2.4561,8.6256l-5.0289,0zm3.8592,-12.5729l-2.6317,0l-6.0814,19.7068l2.8068,0l1.4328,-4.9706l6.2862,0l1.4328,4.9706l2.7776,0l-6.0231,-19.7068zm-18.8437,16.9c-0.4387,0.7899 -1.1697,1.5204 -2.193,2.1347c-1.0233,0.6429 -2.3102,0.9644 -3.8889,0.9644c-2.0758,0 -3.7426,-0.6429 -4.9998,-1.9002c-1.2572,-1.228 -1.9002,-3.0407 -1.9002,-5.3509l0,-5.8475c0,-2.2811 0.6138,-4.0645 1.8127,-5.2921c1.1988,-1.2572 2.7776,-1.9007 4.7658,-1.9007c2.0174,0 3.567,0.5263 4.6199,1.5204c1.0817,1.0233 1.6371,2.4561 1.7252,4.2687l-0.0297,0.0876l-2.602,0c-0.0584,-1.2276 -0.3804,-2.1633 -0.9942,-2.8068c-0.5851,-0.6726 -1.4911,-0.9941 -2.69,-0.9941c-1.1989,0 -2.1347,0.4387 -2.836,1.3161c-0.7018,0.8477 -1.0233,2.1049 -1.0233,3.7717l0,5.8767c0,1.6667 0.3512,2.9532 1.1109,3.8306c0.731,0.906 1.7548,1.3447 3.0407,1.3447c0.9357,0 1.6667,-0.1756 2.1935,-0.497c0.4965,-0.3215 0.9061,-0.731 1.14,-1.2276l0,-4.474l-3.3622,0l0,-1.9883l6.1106,0l0,7.1636z" clip-rule="evenodd" fill-rule="evenodd"/>
  <text font-weight="bold" xml:space="preserve" text-anchor="start" font-family="Noto Sans JP" font-size="24" stroke-width="0" id="svg_4" y="37" x="5" fill="#000000">C</text>
 </g>
</svg>