<svg width="256" height="76" xmlns="http://www.w3.org/2000/svg" fill="none">

 <g>
  <title>Layer 1</title>
  <path id="svg_19" fill="#FACA29" d="m73.3858,0.17676l-2.1096,0l0,45.41744l2.1096,0l0,-45.41744zm36.3142,0l-2.11,0l0,45.41744l2.11,0l0,-45.41744zm36.411,0l-2.064,0l0,45.41744l2.064,0l0,-45.41744zm109.178,0l-2.11,0l0,45.41744l2.11,0l0,-45.41744zm-36.274,0l-2.11,0l0,45.41744l2.11,0l0,-45.41744zm-36.521,0l-2.11,0l0,45.41744l2.11,0l0,-45.41744zm-182.07981,0l36.17111,0l0,45.41744l-36.17111,0l0,-45.41744z" clip-rule="evenodd" fill-rule="evenodd"/>
  <path id="svg_21" fill="white" d="m245.866,33.7235l0,-11.0401l-9.425,0l0,3.0965l5.206,0l0,6.8664c-0.404,0.7629 -0.987,1.3907 -1.795,1.8849c-0.809,0.4934 -1.93,0.7174 -3.366,0.7174c-1.975,0 -3.501,-0.6726 -4.668,-2.0193c-1.122,-1.3459 -1.705,-3.3204 -1.705,-5.9235l0,-9.02c0,-2.5143 0.539,-4.444 1.615,-5.7899c1.078,-1.3012 2.514,-1.9745 4.354,-1.9745c1.84,0 3.186,0.4942 4.129,1.4802c0.897,0.9877 1.435,2.424 1.481,4.3545l3.994,0l0.045,-0.1352c-0.135,-2.827 -0.988,-4.9814 -2.603,-6.55204c-1.662,-1.57065 -4.039,-2.33436 -7.091,-2.33436c-3.052,0 -5.52,0.94286 -7.36,2.8726c-1.841,1.9289 -2.783,4.6671 -2.783,8.1675l0,8.976c0,3.5451 0.988,6.2833 2.918,8.213c1.929,1.9298 4.532,2.8718 7.674,2.8718c2.423,0 4.443,-0.4486 5.968,-1.4363c1.572,-0.9868 2.694,-2.064 3.412,-3.2756zm-36.209,-25.96236l-4.174,0l0,22.39446l-0.134,0.0448l-11.489,-22.43926l-4.219,0l0,30.24766l4.219,0l0,-22.484l0.134,0l11.489,22.484l4.174,0l0,-30.24766zm-39.412,4.17376l0,-4.17376l-14.219,0l0,4.17376l5.023,0l0,21.901l-5.023,0l0,4.1729l5.023,0l4.173,0l5.023,0l0,-4.1729l-5.023,0l0,-21.901l5.023,0zm-55.908,-4.17376l0,30.24766l4.173,0l0,-11.6231l-0.359,-11.6238l0.09,0l7.271,23.2469l2.782,0l7.27,-23.2917l0.134,0.0448l-0.358,11.6238l0,11.6231l4.174,0l0,-30.24766l-5.431,0l-7.091,24.68326l-0.135,0l-7.09,-24.68326l-5.43,0zm-27.6665,19.29796l3.8139,-13.2393l0.1351,0l3.7699,13.2393l-7.7189,0zm5.9235,-19.29796l-4.0394,0l-9.3342,30.24766l4.308,0l2.1992,-7.6293l9.6486,0l2.1992,7.6293l4.2636,0l-9.245,-30.24766zm-28.9229,25.93956c-0.6734,1.2124 -1.7954,2.3336 -3.366,3.2764c-1.5707,0.9869 -3.5459,1.4803 -5.9691,1.4803c-3.1861,0 -5.7444,-0.9868 -7.6741,-2.9165c-1.9297,-1.885 -2.9165,-4.6672 -2.9165,-8.2131l0,-8.9752c0,-3.5012 0.942,-6.2386 2.7822,-8.1227c1.8401,-1.92976 4.2633,-2.9174 7.315,-2.9174c3.0965,0 5.4748,0.80771 7.091,2.33357c1.6603,1.57063 2.5128,3.76983 2.6479,6.55203l-0.0456,0.1344l-3.9937,0c-0.0896,-1.8841 -0.5838,-3.3204 -1.5259,-4.3081c-0.8981,-1.0324 -2.2888,-1.5258 -4.1289,-1.5258c-1.8402,0 -3.2765,0.6733 -4.3529,2.02c-1.0772,1.3012 -1.5706,3.2309 -1.5706,5.7892l0,9.02c0,2.5583 0.539,4.5328 1.705,5.8795c1.122,1.3907 2.6934,2.0641 4.6671,2.0641c1.4363,0 2.5583,-0.2695 3.3668,-0.763c0.7621,-0.4934 1.3907,-1.122 1.7498,-1.8841l0,-6.8672l-5.1606,0l0,-3.0517l9.3791,0l0,10.9953z" clip-rule="evenodd" fill-rule="evenodd"/>
  <text font-weight="bold" xml:space="preserve" text-anchor="start" font-family="Noto Sans JP" font-size="35" stroke-width="0" id="svg_22" y="38.5" x="6" fill="#000000">C</text>
  <text font-style="italic" xml:space="preserve" text-anchor="start" font-family="Noto Sans JP" font-size="18" id="svg_23" y="67.5" x="60" fill="#FACA29">Come to win Golds</text>
 </g>
</svg>